<?xml version="1.0" encoding="UTF-8" standalone="no"?>
<!DOCTYPE svg PUBLIC "-//W3C//DTD SVG 1.1//EN"
 "http://www.w3.org/Graphics/SVG/1.1/DTD/svg11.dtd">
<!-- Generated by graphviz version 2.28.0 (20111211.2114)
 -->
<!-- Title: controllers_diagram Pages: 1 -->
<svg width="948pt" height="963pt"
 viewBox="0.00 0.00 948.00 963.00" xmlns="http://www.w3.org/2000/svg" xmlns:xlink="http://www.w3.org/1999/xlink">
<g id="graph1" class="graph" transform="scale(1 1) rotate(0) translate(4 959)">
<title>controllers_diagram</title>
<polygon fill="white" stroke="white" points="-4,5 -4,-959 945,-959 945,5 -4,5"/>
<!-- _diagram_info -->
<g id="node1" class="node"><title>_diagram_info</title>
<text text-anchor="start" x="734" y="-723.6" font-family="Times,serif" font-size="13.00">Controllers diagram</text>
<text text-anchor="start" x="734" y="-709.6" font-family="Times,serif" font-size="13.00">Date: Mar 31 2012 &#45; 12:57</text>
<text text-anchor="start" x="734" y="-695.6" font-family="Times,serif" font-size="13.00">Migration version: 20120331163623</text>
<text text-anchor="start" x="734" y="-681.6" font-family="Times,serif" font-size="13.00">Generated by RailRoady 1.0.7</text>
<text text-anchor="start" x="734" y="-667.6" font-family="Times,serif" font-size="13.00">http://railroady.prestonlee.com</text>
</g>
<!-- TagIconsController -->
<g id="node2" class="node"><title>TagIconsController</title>
<polyline fill="none" stroke="black" points="254,-22.5 352,-22.5 "/>
<path fill="none" stroke="black" d="M352,-22.5C358,-22.5 364,-28.5 364,-34.5"/>
<polyline fill="none" stroke="black" points="364,-34.5 364,-193.5 "/>
<path fill="none" stroke="black" d="M364,-193.5C364,-199.5 358,-205.5 352,-205.5"/>
<polyline fill="none" stroke="black" points="352,-205.5 254,-205.5 "/>
<path fill="none" stroke="black" d="M254,-205.5C248,-205.5 242,-199.5 242,-193.5"/>
<polyline fill="none" stroke="black" points="242,-193.5 242,-34.5 "/>
<path fill="none" stroke="black" d="M242,-34.5C242,-28.5 248,-22.5 254,-22.5"/>
<text text-anchor="middle" x="303" y="-190.3" font-family="Times,serif" font-size="14.00">TagIconsController</text>
<polyline fill="none" stroke="black" points="242,-182.5 364,-182.5 "/>
<text text-anchor="start" x="250" y="-167.3" font-family="Times,serif" font-size="14.00">create</text>
<text text-anchor="start" x="250" y="-152.3" font-family="Times,serif" font-size="14.00">destroy</text>
<text text-anchor="start" x="250" y="-137.3" font-family="Times,serif" font-size="14.00">edit</text>
<text text-anchor="start" x="250" y="-122.3" font-family="Times,serif" font-size="14.00">index</text>
<text text-anchor="start" x="250" y="-107.3" font-family="Times,serif" font-size="14.00">new</text>
<text text-anchor="start" x="250" y="-92.3" font-family="Times,serif" font-size="14.00">show</text>
<text text-anchor="start" x="250" y="-77.3" font-family="Times,serif" font-size="14.00">update</text>
<polyline fill="none" stroke="black" points="242,-69.5 364,-69.5 "/>
<polyline fill="none" stroke="black" points="242,-45.5 364,-45.5 "/>
<text text-anchor="start" x="250" y="-30.3" font-family="Times,serif" font-size="14.00">_layout</text>
</g>
<!-- TemplatesController -->
<g id="node3" class="node"><title>TemplatesController</title>
<polyline fill="none" stroke="black" points="254,-242.5 434,-242.5 "/>
<path fill="none" stroke="black" d="M434,-242.5C440,-242.5 446,-248.5 446,-254.5"/>
<polyline fill="none" stroke="black" points="446,-254.5 446,-458.5 "/>
<path fill="none" stroke="black" d="M446,-458.5C446,-464.5 440,-470.5 434,-470.5"/>
<polyline fill="none" stroke="black" points="434,-470.5 254,-470.5 "/>
<path fill="none" stroke="black" d="M254,-470.5C248,-470.5 242,-464.5 242,-458.5"/>
<polyline fill="none" stroke="black" points="242,-458.5 242,-254.5 "/>
<path fill="none" stroke="black" d="M242,-254.5C242,-248.5 248,-242.5 254,-242.5"/>
<text text-anchor="middle" x="344" y="-455.3" font-family="Times,serif" font-size="14.00">TemplatesController</text>
<polyline fill="none" stroke="black" points="242,-447.5 446,-447.5 "/>
<text text-anchor="start" x="250" y="-432.3" font-family="Times,serif" font-size="14.00">_callback_before_231</text>
<text text-anchor="start" x="250" y="-417.3" font-family="Times,serif" font-size="14.00">_one_time_conditions_valid_232?</text>
<text text-anchor="start" x="250" y="-402.3" font-family="Times,serif" font-size="14.00">create</text>
<text text-anchor="start" x="250" y="-387.3" font-family="Times,serif" font-size="14.00">destroy</text>
<text text-anchor="start" x="250" y="-372.3" font-family="Times,serif" font-size="14.00">edit</text>
<text text-anchor="start" x="250" y="-357.3" font-family="Times,serif" font-size="14.00">index</text>
<text text-anchor="start" x="250" y="-342.3" font-family="Times,serif" font-size="14.00">new</text>
<text text-anchor="start" x="250" y="-327.3" font-family="Times,serif" font-size="14.00">show</text>
<text text-anchor="start" x="250" y="-312.3" font-family="Times,serif" font-size="14.00">update</text>
<polyline fill="none" stroke="black" points="242,-304.5 446,-304.5 "/>
<polyline fill="none" stroke="black" points="242,-280.5 446,-280.5 "/>
<text text-anchor="start" x="250" y="-265.3" font-family="Times,serif" font-size="14.00">_layout</text>
<text text-anchor="start" x="250" y="-250.3" font-family="Times,serif" font-size="14.00">_run_process_action_callbacks</text>
</g>
<!-- ApplicationController -->
<g id="node4" class="node"><title>ApplicationController</title>
<polyline fill="none" stroke="black" points="408,-66.5 588,-66.5 "/>
<path fill="none" stroke="black" d="M588,-66.5C594,-66.5 600,-72.5 600,-78.5"/>
<polyline fill="none" stroke="black" points="600,-78.5 600,-177.5 "/>
<path fill="none" stroke="black" d="M600,-177.5C600,-183.5 594,-189.5 588,-189.5"/>
<polyline fill="none" stroke="black" points="588,-189.5 408,-189.5 "/>
<path fill="none" stroke="black" d="M408,-189.5C402,-189.5 396,-183.5 396,-177.5"/>
<polyline fill="none" stroke="black" points="396,-177.5 396,-78.5 "/>
<path fill="none" stroke="black" d="M396,-78.5C396,-72.5 402,-66.5 408,-66.5"/>
<text text-anchor="middle" x="498" y="-174.3" font-family="Times,serif" font-size="14.00">ApplicationController</text>
<polyline fill="none" stroke="black" points="396,-166.5 600,-166.5 "/>
<text text-anchor="start" x="404" y="-151.3" font-family="Times,serif" font-size="14.00">_one_time_conditions_valid_116?</text>
<text text-anchor="start" x="404" y="-136.3" font-family="Times,serif" font-size="14.00">after_sign_in_path_for</text>
<polyline fill="none" stroke="black" points="396,-128.5 600,-128.5 "/>
<polyline fill="none" stroke="black" points="396,-104.5 600,-104.5 "/>
<text text-anchor="start" x="404" y="-89.3" font-family="Times,serif" font-size="14.00">_layout</text>
<text text-anchor="start" x="404" y="-74.3" font-family="Times,serif" font-size="14.00">_run_process_action_callbacks</text>
</g>
<!-- ListItemsController -->
<g id="node5" class="node"><title>ListItemsController</title>
<polyline fill="none" stroke="black" points="496,-242.5 676,-242.5 "/>
<path fill="none" stroke="black" d="M676,-242.5C682,-242.5 688,-248.5 688,-254.5"/>
<polyline fill="none" stroke="black" points="688,-254.5 688,-458.5 "/>
<path fill="none" stroke="black" d="M688,-458.5C688,-464.5 682,-470.5 676,-470.5"/>
<polyline fill="none" stroke="black" points="676,-470.5 496,-470.5 "/>
<path fill="none" stroke="black" d="M496,-470.5C490,-470.5 484,-464.5 484,-458.5"/>
<polyline fill="none" stroke="black" points="484,-458.5 484,-254.5 "/>
<path fill="none" stroke="black" d="M484,-254.5C484,-248.5 490,-242.5 496,-242.5"/>
<text text-anchor="middle" x="586" y="-455.3" font-family="Times,serif" font-size="14.00">ListItemsController</text>
<polyline fill="none" stroke="black" points="484,-447.5 688,-447.5 "/>
<text text-anchor="start" x="492" y="-432.3" font-family="Times,serif" font-size="14.00">_callback_before_377</text>
<text text-anchor="start" x="492" y="-417.3" font-family="Times,serif" font-size="14.00">_one_time_conditions_valid_378?</text>
<text text-anchor="start" x="492" y="-402.3" font-family="Times,serif" font-size="14.00">create</text>
<text text-anchor="start" x="492" y="-387.3" font-family="Times,serif" font-size="14.00">destroy</text>
<text text-anchor="start" x="492" y="-372.3" font-family="Times,serif" font-size="14.00">edit</text>
<text text-anchor="start" x="492" y="-357.3" font-family="Times,serif" font-size="14.00">index</text>
<text text-anchor="start" x="492" y="-342.3" font-family="Times,serif" font-size="14.00">new</text>
<text text-anchor="start" x="492" y="-327.3" font-family="Times,serif" font-size="14.00">show</text>
<text text-anchor="start" x="492" y="-312.3" font-family="Times,serif" font-size="14.00">update</text>
<polyline fill="none" stroke="black" points="484,-304.5 688,-304.5 "/>
<polyline fill="none" stroke="black" points="484,-280.5 688,-280.5 "/>
<text text-anchor="start" x="492" y="-265.3" font-family="Times,serif" font-size="14.00">_layout</text>
<text text-anchor="start" x="492" y="-250.3" font-family="Times,serif" font-size="14.00">_run_process_action_callbacks</text>
</g>
<!-- ProgressesController -->
<g id="node6" class="node"><title>ProgressesController</title>
<polyline fill="none" stroke="black" points="496,-506.5 676,-506.5 "/>
<path fill="none" stroke="black" d="M676,-506.5C682,-506.5 688,-512.5 688,-518.5"/>
<polyline fill="none" stroke="black" points="688,-518.5 688,-722.5 "/>
<path fill="none" stroke="black" d="M688,-722.5C688,-728.5 682,-734.5 676,-734.5"/>
<polyline fill="none" stroke="black" points="676,-734.5 496,-734.5 "/>
<path fill="none" stroke="black" d="M496,-734.5C490,-734.5 484,-728.5 484,-722.5"/>
<polyline fill="none" stroke="black" points="484,-722.5 484,-518.5 "/>
<path fill="none" stroke="black" d="M484,-518.5C484,-512.5 490,-506.5 496,-506.5"/>
<text text-anchor="middle" x="586" y="-719.3" font-family="Times,serif" font-size="14.00">ProgressesController</text>
<polyline fill="none" stroke="black" points="484,-711.5 688,-711.5 "/>
<text text-anchor="start" x="492" y="-696.3" font-family="Times,serif" font-size="14.00">_callback_before_383</text>
<text text-anchor="start" x="492" y="-681.3" font-family="Times,serif" font-size="14.00">_one_time_conditions_valid_384?</text>
<text text-anchor="start" x="492" y="-666.3" font-family="Times,serif" font-size="14.00">create</text>
<text text-anchor="start" x="492" y="-651.3" font-family="Times,serif" font-size="14.00">destroy</text>
<text text-anchor="start" x="492" y="-636.3" font-family="Times,serif" font-size="14.00">edit</text>
<text text-anchor="start" x="492" y="-621.3" font-family="Times,serif" font-size="14.00">index</text>
<text text-anchor="start" x="492" y="-606.3" font-family="Times,serif" font-size="14.00">new</text>
<text text-anchor="start" x="492" y="-591.3" font-family="Times,serif" font-size="14.00">show</text>
<text text-anchor="start" x="492" y="-576.3" font-family="Times,serif" font-size="14.00">update</text>
<polyline fill="none" stroke="black" points="484,-568.5 688,-568.5 "/>
<polyline fill="none" stroke="black" points="484,-544.5 688,-544.5 "/>
<text text-anchor="start" x="492" y="-529.3" font-family="Times,serif" font-size="14.00">_layout</text>
<text text-anchor="start" x="492" y="-514.3" font-family="Times,serif" font-size="14.00">_run_process_action_callbacks</text>
</g>
<!-- ListsController -->
<g id="node7" class="node"><title>ListsController</title>
<polyline fill="none" stroke="black" points="254,-506.5 434,-506.5 "/>
<path fill="none" stroke="black" d="M434,-506.5C440,-506.5 446,-512.5 446,-518.5"/>
<polyline fill="none" stroke="black" points="446,-518.5 446,-722.5 "/>
<path fill="none" stroke="black" d="M446,-722.5C446,-728.5 440,-734.5 434,-734.5"/>
<polyline fill="none" stroke="black" points="434,-734.5 254,-734.5 "/>
<path fill="none" stroke="black" d="M254,-734.5C248,-734.5 242,-728.5 242,-722.5"/>
<polyline fill="none" stroke="black" points="242,-722.5 242,-518.5 "/>
<path fill="none" stroke="black" d="M242,-518.5C242,-512.5 248,-506.5 254,-506.5"/>
<text text-anchor="middle" x="344" y="-719.3" font-family="Times,serif" font-size="14.00">ListsController</text>
<polyline fill="none" stroke="black" points="242,-711.5 446,-711.5 "/>
<text text-anchor="start" x="250" y="-696.3" font-family="Times,serif" font-size="14.00">_callback_before_553</text>
<text text-anchor="start" x="250" y="-681.3" font-family="Times,serif" font-size="14.00">_one_time_conditions_valid_554?</text>
<text text-anchor="start" x="250" y="-666.3" font-family="Times,serif" font-size="14.00">create</text>
<text text-anchor="start" x="250" y="-651.3" font-family="Times,serif" font-size="14.00">destroy</text>
<text text-anchor="start" x="250" y="-636.3" font-family="Times,serif" font-size="14.00">edit</text>
<text text-anchor="start" x="250" y="-621.3" font-family="Times,serif" font-size="14.00">index</text>
<text text-anchor="start" x="250" y="-606.3" font-family="Times,serif" font-size="14.00">new</text>
<text text-anchor="start" x="250" y="-591.3" font-family="Times,serif" font-size="14.00">show</text>
<text text-anchor="start" x="250" y="-576.3" font-family="Times,serif" font-size="14.00">update</text>
<polyline fill="none" stroke="black" points="242,-568.5 446,-568.5 "/>
<polyline fill="none" stroke="black" points="242,-544.5 446,-544.5 "/>
<text text-anchor="start" x="250" y="-529.3" font-family="Times,serif" font-size="14.00">_layout</text>
<text text-anchor="start" x="250" y="-514.3" font-family="Times,serif" font-size="14.00">_run_process_action_callbacks</text>
</g>
<!-- HomesController -->
<g id="node8" class="node"><title>HomesController</title>
<polyline fill="none" stroke="black" points="738,-264.5 918,-264.5 "/>
<path fill="none" stroke="black" d="M918,-264.5C924,-264.5 930,-270.5 930,-276.5"/>
<polyline fill="none" stroke="black" points="930,-276.5 930,-375.5 "/>
<path fill="none" stroke="black" d="M930,-375.5C930,-381.5 924,-387.5 918,-387.5"/>
<polyline fill="none" stroke="black" points="918,-387.5 738,-387.5 "/>
<path fill="none" stroke="black" d="M738,-387.5C732,-387.5 726,-381.5 726,-375.5"/>
<polyline fill="none" stroke="black" points="726,-375.5 726,-276.5 "/>
<path fill="none" stroke="black" d="M726,-276.5C726,-270.5 732,-264.5 738,-264.5"/>
<text text-anchor="middle" x="828" y="-372.3" font-family="Times,serif" font-size="14.00">HomesController</text>
<polyline fill="none" stroke="black" points="726,-364.5 930,-364.5 "/>
<text text-anchor="start" x="734" y="-349.3" font-family="Times,serif" font-size="14.00">_one_time_conditions_valid_556?</text>
<text text-anchor="start" x="734" y="-334.3" font-family="Times,serif" font-size="14.00">index</text>
<polyline fill="none" stroke="black" points="726,-326.5 930,-326.5 "/>
<polyline fill="none" stroke="black" points="726,-302.5 930,-302.5 "/>
<text text-anchor="start" x="734" y="-287.3" font-family="Times,serif" font-size="14.00">_layout</text>
<text text-anchor="start" x="734" y="-272.3" font-family="Times,serif" font-size="14.00">_run_process_action_callbacks</text>
</g>
<!-- SocialLinksController -->
<g id="node9" class="node"><title>SocialLinksController</title>
<polyline fill="none" stroke="black" points="12,-374.5 192,-374.5 "/>
<path fill="none" stroke="black" d="M192,-374.5C198,-374.5 204,-380.5 204,-386.5"/>
<polyline fill="none" stroke="black" points="204,-386.5 204,-590.5 "/>
<path fill="none" stroke="black" d="M204,-590.5C204,-596.5 198,-602.5 192,-602.5"/>
<polyline fill="none" stroke="black" points="192,-602.5 12,-602.5 "/>
<path fill="none" stroke="black" d="M12,-602.5C6,-602.5 -2.84217e-14,-596.5 -2.84217e-14,-590.5"/>
<polyline fill="none" stroke="black" points="-2.84217e-14,-590.5 -2.84217e-14,-386.5 "/>
<path fill="none" stroke="black" d="M-2.84217e-14,-386.5C-2.84217e-14,-380.5 6,-374.5 12,-374.5"/>
<text text-anchor="middle" x="102" y="-587.3" font-family="Times,serif" font-size="14.00">SocialLinksController</text>
<polyline fill="none" stroke="black" points="-2.84217e-14,-579.5 204,-579.5 "/>
<text text-anchor="start" x="8" y="-564.3" font-family="Times,serif" font-size="14.00">_callback_before_647</text>
<text text-anchor="start" x="8" y="-549.3" font-family="Times,serif" font-size="14.00">_one_time_conditions_valid_648?</text>
<text text-anchor="start" x="8" y="-534.3" font-family="Times,serif" font-size="14.00">create</text>
<text text-anchor="start" x="8" y="-519.3" font-family="Times,serif" font-size="14.00">destroy</text>
<text text-anchor="start" x="8" y="-504.3" font-family="Times,serif" font-size="14.00">edit</text>
<text text-anchor="start" x="8" y="-489.3" font-family="Times,serif" font-size="14.00">index</text>
<text text-anchor="start" x="8" y="-474.3" font-family="Times,serif" font-size="14.00">new</text>
<text text-anchor="start" x="8" y="-459.3" font-family="Times,serif" font-size="14.00">show</text>
<text text-anchor="start" x="8" y="-444.3" font-family="Times,serif" font-size="14.00">update</text>
<polyline fill="none" stroke="black" points="-2.84217e-14,-436.5 204,-436.5 "/>
<polyline fill="none" stroke="black" points="-2.84217e-14,-412.5 204,-412.5 "/>
<text text-anchor="start" x="8" y="-397.3" font-family="Times,serif" font-size="14.00">_layout</text>
<text text-anchor="start" x="8" y="-382.3" font-family="Times,serif" font-size="14.00">_run_process_action_callbacks</text>
</g>
<!-- ExternalLinksController -->
<g id="node10" class="node"><title>ExternalLinksController</title>
<polyline fill="none" stroke="black" points="12,-110.5 192,-110.5 "/>
<path fill="none" stroke="black" d="M192,-110.5C198,-110.5 204,-116.5 204,-122.5"/>
<polyline fill="none" stroke="black" points="204,-122.5 204,-326.5 "/>
<path fill="none" stroke="black" d="M204,-326.5C204,-332.5 198,-338.5 192,-338.5"/>
<polyline fill="none" stroke="black" points="192,-338.5 12,-338.5 "/>
<path fill="none" stroke="black" d="M12,-338.5C6,-338.5 -2.84217e-14,-332.5 -2.84217e-14,-326.5"/>
<polyline fill="none" stroke="black" points="-2.84217e-14,-326.5 -2.84217e-14,-122.5 "/>
<path fill="none" stroke="black" d="M-2.84217e-14,-122.5C-2.84217e-14,-116.5 6,-110.5 12,-110.5"/>
<text text-anchor="middle" x="102" y="-323.3" font-family="Times,serif" font-size="14.00">ExternalLinksController</text>
<polyline fill="none" stroke="black" points="-2.84217e-14,-315.5 204,-315.5 "/>
<text text-anchor="start" x="8" y="-300.3" font-family="Times,serif" font-size="14.00">_callback_before_757</text>
<text text-anchor="start" x="8" y="-285.3" font-family="Times,serif" font-size="14.00">_one_time_conditions_valid_758?</text>
<text text-anchor="start" x="8" y="-270.3" font-family="Times,serif" font-size="14.00">create</text>
<text text-anchor="start" x="8" y="-255.3" font-family="Times,serif" font-size="14.00">destroy</text>
<text text-anchor="start" x="8" y="-240.3" font-family="Times,serif" font-size="14.00">edit</text>
<text text-anchor="start" x="8" y="-225.3" font-family="Times,serif" font-size="14.00">index</text>
<text text-anchor="start" x="8" y="-210.3" font-family="Times,serif" font-size="14.00">new</text>
<text text-anchor="start" x="8" y="-195.3" font-family="Times,serif" font-size="14.00">show</text>
<text text-anchor="start" x="8" y="-180.3" font-family="Times,serif" font-size="14.00">update</text>
<polyline fill="none" stroke="black" points="-2.84217e-14,-172.5 204,-172.5 "/>
<polyline fill="none" stroke="black" points="-2.84217e-14,-148.5 204,-148.5 "/>
<text text-anchor="start" x="8" y="-133.3" font-family="Times,serif" font-size="14.00">_layout</text>
<text text-anchor="start" x="8" y="-118.3" font-family="Times,serif" font-size="14.00">_run_process_action_callbacks</text>
</g>
<!-- LocationsController -->
<g id="node11" class="node"><title>LocationsController</title>
<polyline fill="none" stroke="black" points="738,-440.5 839,-440.5 "/>
<path fill="none" stroke="black" d="M839,-440.5C845,-440.5 851,-446.5 851,-452.5"/>
<polyline fill="none" stroke="black" points="851,-452.5 851,-611.5 "/>
<path fill="none" stroke="black" d="M851,-611.5C851,-617.5 845,-623.5 839,-623.5"/>
<polyline fill="none" stroke="black" points="839,-623.5 738,-623.5 "/>
<path fill="none" stroke="black" d="M738,-623.5C732,-623.5 726,-617.5 726,-611.5"/>
<polyline fill="none" stroke="black" points="726,-611.5 726,-452.5 "/>
<path fill="none" stroke="black" d="M726,-452.5C726,-446.5 732,-440.5 738,-440.5"/>
<text text-anchor="middle" x="788.5" y="-608.3" font-family="Times,serif" font-size="14.00">LocationsController</text>
<polyline fill="none" stroke="black" points="726,-600.5 851,-600.5 "/>
<text text-anchor="start" x="734" y="-585.3" font-family="Times,serif" font-size="14.00">create</text>
<text text-anchor="start" x="734" y="-570.3" font-family="Times,serif" font-size="14.00">destroy</text>
<text text-anchor="start" x="734" y="-555.3" font-family="Times,serif" font-size="14.00">edit</text>
<text text-anchor="start" x="734" y="-540.3" font-family="Times,serif" font-size="14.00">index</text>
<text text-anchor="start" x="734" y="-525.3" font-family="Times,serif" font-size="14.00">new</text>
<text text-anchor="start" x="734" y="-510.3" font-family="Times,serif" font-size="14.00">show</text>
<text text-anchor="start" x="734" y="-495.3" font-family="Times,serif" font-size="14.00">update</text>
<polyline fill="none" stroke="black" points="726,-487.5 851,-487.5 "/>
<polyline fill="none" stroke="black" points="726,-463.5 851,-463.5 "/>
<text text-anchor="start" x="734" y="-448.3" font-family="Times,serif" font-size="14.00">_layout</text>
</g>
<!-- MapsController -->
<g id="node12" class="node"><title>MapsController</title>
<polyline fill="none" stroke="black" points="760,-770.5 839,-770.5 "/>
<path fill="none" stroke="black" d="M839,-770.5C845,-770.5 851,-776.5 851,-782.5"/>
<polyline fill="none" stroke="black" points="851,-782.5 851,-941.5 "/>
<path fill="none" stroke="black" d="M851,-941.5C851,-947.5 845,-953.5 839,-953.5"/>
<polyline fill="none" stroke="black" points="839,-953.5 760,-953.5 "/>
<path fill="none" stroke="black" d="M760,-953.5C754,-953.5 748,-947.5 748,-941.5"/>
<polyline fill="none" stroke="black" points="748,-941.5 748,-782.5 "/>
<path fill="none" stroke="black" d="M748,-782.5C748,-776.5 754,-770.5 760,-770.5"/>
<text text-anchor="middle" x="799.5" y="-938.3" font-family="Times,serif" font-size="14.00">MapsController</text>
<polyline fill="none" stroke="black" points="748,-930.5 851,-930.5 "/>
<text text-anchor="start" x="756" y="-915.3" font-family="Times,serif" font-size="14.00">create</text>
<text text-anchor="start" x="756" y="-900.3" font-family="Times,serif" font-size="14.00">destroy</text>
<text text-anchor="start" x="756" y="-885.3" font-family="Times,serif" font-size="14.00">edit</text>
<text text-anchor="start" x="756" y="-870.3" font-family="Times,serif" font-size="14.00">index</text>
<text text-anchor="start" x="756" y="-855.3" font-family="Times,serif" font-size="14.00">new</text>
<text text-anchor="start" x="756" y="-840.3" font-family="Times,serif" font-size="14.00">show</text>
<text text-anchor="start" x="756" y="-825.3" font-family="Times,serif" font-size="14.00">update</text>
<polyline fill="none" stroke="black" points="748,-817.5 851,-817.5 "/>
<polyline fill="none" stroke="black" points="748,-793.5 851,-793.5 "/>
<text text-anchor="start" x="756" y="-778.3" font-family="Times,serif" font-size="14.00">_layout</text>
</g>
<!-- AccountsController -->
<g id="node13" class="node"><title>AccountsController</title>
<polyline fill="none" stroke="black" points="12,-726.5 192,-726.5 "/>
<path fill="none" stroke="black" d="M192,-726.5C198,-726.5 204,-732.5 204,-738.5"/>
<polyline fill="none" stroke="black" points="204,-738.5 204,-942.5 "/>
<path fill="none" stroke="black" d="M204,-942.5C204,-948.5 198,-954.5 192,-954.5"/>
<polyline fill="none" stroke="black" points="192,-954.5 12,-954.5 "/>
<path fill="none" stroke="black" d="M12,-954.5C6,-954.5 -2.84217e-14,-948.5 -2.84217e-14,-942.5"/>
<polyline fill="none" stroke="black" points="-2.84217e-14,-942.5 -2.84217e-14,-738.5 "/>
<path fill="none" stroke="black" d="M-2.84217e-14,-738.5C-2.84217e-14,-732.5 6,-726.5 12,-726.5"/>
<text text-anchor="middle" x="102" y="-939.3" font-family="Times,serif" font-size="14.00">AccountsController</text>
<polyline fill="none" stroke="black" points="-2.84217e-14,-931.5 204,-931.5 "/>
<text text-anchor="start" x="8" y="-916.3" font-family="Times,serif" font-size="14.00">_callback_before_775</text>
<text text-anchor="start" x="8" y="-901.3" font-family="Times,serif" font-size="14.00">_one_time_conditions_valid_776?</text>
<text text-anchor="start" x="8" y="-886.3" font-family="Times,serif" font-size="14.00">create</text>
<text text-anchor="start" x="8" y="-871.3" font-family="Times,serif" font-size="14.00">destroy</text>
<text text-anchor="start" x="8" y="-856.3" font-family="Times,serif" font-size="14.00">edit</text>
<text text-anchor="start" x="8" y="-841.3" font-family="Times,serif" font-size="14.00">index</text>
<text text-anchor="start" x="8" y="-826.3" font-family="Times,serif" font-size="14.00">new</text>
<text text-anchor="start" x="8" y="-811.3" font-family="Times,serif" font-size="14.00">show</text>
<text text-anchor="start" x="8" y="-796.3" font-family="Times,serif" font-size="14.00">update</text>
<polyline fill="none" stroke="black" points="-2.84217e-14,-788.5 204,-788.5 "/>
<polyline fill="none" stroke="black" points="-2.84217e-14,-764.5 204,-764.5 "/>
<text text-anchor="start" x="8" y="-749.3" font-family="Times,serif" font-size="14.00">_layout</text>
<text text-anchor="start" x="8" y="-734.3" font-family="Times,serif" font-size="14.00">_run_process_action_callbacks</text>
</g>
<!-- UsersController -->
<g id="node14" class="node"><title>UsersController</title>
<polyline fill="none" stroke="black" points="738,-0.5 918,-0.5 "/>
<path fill="none" stroke="black" d="M918,-0.5C924,-0.5 930,-6.5 930,-12.5"/>
<polyline fill="none" stroke="black" points="930,-12.5 930,-216.5 "/>
<path fill="none" stroke="black" d="M930,-216.5C930,-222.5 924,-228.5 918,-228.5"/>
<polyline fill="none" stroke="black" points="918,-228.5 738,-228.5 "/>
<path fill="none" stroke="black" d="M738,-228.5C732,-228.5 726,-222.5 726,-216.5"/>
<polyline fill="none" stroke="black" points="726,-216.5 726,-12.5 "/>
<path fill="none" stroke="black" d="M726,-12.5C726,-6.5 732,-0.5 738,-0.5"/>
<text text-anchor="middle" x="828" y="-213.3" font-family="Times,serif" font-size="14.00">UsersController</text>
<polyline fill="none" stroke="black" points="726,-205.5 930,-205.5 "/>
<text text-anchor="start" x="734" y="-190.3" font-family="Times,serif" font-size="14.00">_callback_before_777</text>
<text text-anchor="start" x="734" y="-175.3" font-family="Times,serif" font-size="14.00">_one_time_conditions_valid_778?</text>
<text text-anchor="start" x="734" y="-160.3" font-family="Times,serif" font-size="14.00">create</text>
<text text-anchor="start" x="734" y="-145.3" font-family="Times,serif" font-size="14.00">destroy</text>
<text text-anchor="start" x="734" y="-130.3" font-family="Times,serif" font-size="14.00">edit</text>
<text text-anchor="start" x="734" y="-115.3" font-family="Times,serif" font-size="14.00">index</text>
<text text-anchor="start" x="734" y="-100.3" font-family="Times,serif" font-size="14.00">new</text>
<text text-anchor="start" x="734" y="-85.3" font-family="Times,serif" font-size="14.00">show</text>
<text text-anchor="start" x="734" y="-70.3" font-family="Times,serif" font-size="14.00">update</text>
<polyline fill="none" stroke="black" points="726,-62.5 930,-62.5 "/>
<polyline fill="none" stroke="black" points="726,-38.5 930,-38.5 "/>
<text text-anchor="start" x="734" y="-23.3" font-family="Times,serif" font-size="14.00">_layout</text>
<text text-anchor="start" x="734" y="-8.3" font-family="Times,serif" font-size="14.00">_run_process_action_callbacks</text>
</g>
</g>
</svg>
