<?xml version="1.0" encoding="UTF-8" standalone="no"?>
<!DOCTYPE svg PUBLIC "-//W3C//DTD SVG 1.1//EN"
 "http://www.w3.org/Graphics/SVG/1.1/DTD/svg11.dtd">
<!-- Generated by graphviz version 2.28.0 (20111211.2114)
 -->
<!-- Title: models_diagram Pages: 1 -->
<svg width="3248pt" height="1026pt"
 viewBox="0.00 0.00 3248.00 1026.00" xmlns="http://www.w3.org/2000/svg" xmlns:xlink="http://www.w3.org/1999/xlink">
<g id="graph1" class="graph" transform="scale(1 1) rotate(0) translate(4 1022)">
<title>models_diagram</title>
<polygon fill="white" stroke="white" points="-4,5 -4,-1022 3245,-1022 3245,5 -4,5"/>
<!-- _diagram_info -->
<g id="node1" class="node"><title>_diagram_info</title>
<text text-anchor="start" x="2247" y="-996.6" font-family="Times,serif" font-size="13.00">Models diagram</text>
<text text-anchor="start" x="2247" y="-982.6" font-family="Times,serif" font-size="13.00">Date: Mar 31 2012 &#45; 12:57</text>
<text text-anchor="start" x="2247" y="-968.6" font-family="Times,serif" font-size="13.00">Migration version: 20120331163623</text>
<text text-anchor="start" x="2247" y="-954.6" font-family="Times,serif" font-size="13.00">Generated by RailRoady 1.0.7</text>
<text text-anchor="start" x="2247" y="-940.6" font-family="Times,serif" font-size="13.00">http://railroady.prestonlee.com</text>
</g>
<!-- TagIcon -->
<g id="node2" class="node"><title>TagIcon</title>
<polyline fill="none" stroke="black" points="2483.5,-926.5 2590.5,-926.5 "/>
<path fill="none" stroke="black" d="M2590.5,-926.5C2596.5,-926.5 2602.5,-932.5 2602.5,-938.5"/>
<polyline fill="none" stroke="black" points="2602.5,-938.5 2602.5,-1005.5 "/>
<path fill="none" stroke="black" d="M2602.5,-1005.5C2602.5,-1011.5 2596.5,-1017.5 2590.5,-1017.5"/>
<polyline fill="none" stroke="black" points="2590.5,-1017.5 2483.5,-1017.5 "/>
<path fill="none" stroke="black" d="M2483.5,-1017.5C2477.5,-1017.5 2471.5,-1011.5 2471.5,-1005.5"/>
<polyline fill="none" stroke="black" points="2471.5,-1005.5 2471.5,-938.5 "/>
<path fill="none" stroke="black" d="M2471.5,-938.5C2471.5,-932.5 2477.5,-926.5 2483.5,-926.5"/>
<text text-anchor="middle" x="2537" y="-1002.3" font-family="Times,serif" font-size="14.00">TagIcon</text>
<polyline fill="none" stroke="black" points="2471.5,-994.5 2602.5,-994.5 "/>
<text text-anchor="start" x="2479.5" y="-979.3" font-family="Times,serif" font-size="14.00">tag :string</text>
<text text-anchor="start" x="2479.5" y="-964.3" font-family="Times,serif" font-size="14.00">icon :string</text>
<text text-anchor="start" x="2479.5" y="-949.3" font-family="Times,serif" font-size="14.00">created_at :datetime</text>
<text text-anchor="start" x="2479.5" y="-934.3" font-family="Times,serif" font-size="14.00">updated_at :datetime</text>
</g>
<!-- ListItem -->
<g id="node3" class="node"><title>ListItem</title>
<polyline fill="none" stroke="black" points="2606.5,-449.5 2713.5,-449.5 "/>
<path fill="none" stroke="black" d="M2713.5,-449.5C2719.5,-449.5 2725.5,-455.5 2725.5,-461.5"/>
<polyline fill="none" stroke="black" points="2725.5,-461.5 2725.5,-528.5 "/>
<path fill="none" stroke="black" d="M2725.5,-528.5C2725.5,-534.5 2719.5,-540.5 2713.5,-540.5"/>
<polyline fill="none" stroke="black" points="2713.5,-540.5 2606.5,-540.5 "/>
<path fill="none" stroke="black" d="M2606.5,-540.5C2600.5,-540.5 2594.5,-534.5 2594.5,-528.5"/>
<polyline fill="none" stroke="black" points="2594.5,-528.5 2594.5,-461.5 "/>
<path fill="none" stroke="black" d="M2594.5,-461.5C2594.5,-455.5 2600.5,-449.5 2606.5,-449.5"/>
<text text-anchor="middle" x="2660" y="-525.3" font-family="Times,serif" font-size="14.00">ListItem</text>
<polyline fill="none" stroke="black" points="2594.5,-517.5 2725.5,-517.5 "/>
<text text-anchor="start" x="2602.5" y="-502.3" font-family="Times,serif" font-size="14.00">title :string</text>
<text text-anchor="start" x="2602.5" y="-487.3" font-family="Times,serif" font-size="14.00">description :text</text>
<text text-anchor="start" x="2602.5" y="-472.3" font-family="Times,serif" font-size="14.00">created_at :datetime</text>
<text text-anchor="start" x="2602.5" y="-457.3" font-family="Times,serif" font-size="14.00">updated_at :datetime</text>
</g>
<!-- ListItem&#45;&gt;ListItem -->
<g id="edge4" class="edge"><title>ListItem&#45;&gt;ListItem</title>
<path fill="none" stroke="#2652bb" d="M2716.38,-540.391C2731.51,-537.929 2743,-522.799 2743,-495 2743,-468.476 2732.54,-453.486 2718.44,-450.028"/>
<ellipse fill="none" stroke="#2652bb" cx="2712.18" cy="-540.459" rx="4" ry="4"/>
<polygon fill="#2652bb" stroke="#2652bb" points="2718.17,-450.013 2708.42,-444.983 2713.17,-449.745 2708.18,-449.476 2708.18,-449.476 2708.18,-449.476 2713.17,-449.745 2707.94,-453.97 2718.17,-450.013 2718.17,-450.013"/>
<text text-anchor="middle" x="2765.5" y="-491.3" font-family="Times,serif" font-size="14.00">children</text>
</g>
<!-- Map -->
<g id="node12" class="node"><title>Map</title>
<polyline fill="none" stroke="black" points="3055.5,-117 3162.5,-117 "/>
<path fill="none" stroke="black" d="M3162.5,-117C3168.5,-117 3174.5,-123 3174.5,-129"/>
<polyline fill="none" stroke="black" points="3174.5,-129 3174.5,-211 "/>
<path fill="none" stroke="black" d="M3174.5,-211C3174.5,-217 3168.5,-223 3162.5,-223"/>
<polyline fill="none" stroke="black" points="3162.5,-223 3055.5,-223 "/>
<path fill="none" stroke="black" d="M3055.5,-223C3049.5,-223 3043.5,-217 3043.5,-211"/>
<polyline fill="none" stroke="black" points="3043.5,-211 3043.5,-129 "/>
<path fill="none" stroke="black" d="M3043.5,-129C3043.5,-123 3049.5,-117 3055.5,-117"/>
<text text-anchor="middle" x="3109" y="-207.8" font-family="Times,serif" font-size="14.00">Map</text>
<polyline fill="none" stroke="black" points="3043.5,-200 3174.5,-200 "/>
<text text-anchor="start" x="3051.5" y="-184.8" font-family="Times,serif" font-size="14.00">image :string</text>
<text text-anchor="start" x="3051.5" y="-169.8" font-family="Times,serif" font-size="14.00">name :string</text>
<text text-anchor="start" x="3051.5" y="-154.8" font-family="Times,serif" font-size="14.00">description :text</text>
<text text-anchor="start" x="3051.5" y="-139.8" font-family="Times,serif" font-size="14.00">created_at :datetime</text>
<text text-anchor="start" x="3051.5" y="-124.8" font-family="Times,serif" font-size="14.00">updated_at :datetime</text>
</g>
<!-- ListItem&#45;&gt;Map -->
<g id="edge2" class="edge"><title>ListItem&#45;&gt;Map</title>
<path fill="none" stroke="#c00a1c" d="M2679.21,-441.456C2700.92,-390.161 2741.45,-314.395 2803,-276 2857.35,-242.097 2884.95,-277.404 2946,-258 2976.87,-248.189 3008.75,-232.581 3036.03,-217.277"/>
<ellipse fill="none" stroke="#c00a1c" cx="2677.55" cy="-445.459" rx="4.00001" ry="4.00001"/>
<ellipse fill="#c00a1c" stroke="#c00a1c" cx="3039.76" cy="-215.162" rx="4.00002" ry="4.00002"/>
</g>
<!-- ActsAsTaggableOn::Tagging -->
<g id="node19" class="node"><title>ActsAsTaggableOn::Tagging</title>
<ellipse fill="none" stroke="black" cx="1053" cy="-170" rx="114.085" ry="18"/>
<text text-anchor="middle" x="1053" y="-166.3" font-family="Times,serif" font-size="14.00">ActsAsTaggableOn::Tagging</text>
</g>
<!-- ListItem&#45;&gt;ActsAsTaggableOn::Tagging -->
<g id="edge6" class="edge"><title>ListItem&#45;&gt;ActsAsTaggableOn::Tagging</title>
<path fill="none" stroke="#e14a3b" d="M2652.06,-441.281C2641.15,-389.369 2616.06,-312.687 2560,-276 2514.3,-246.089 1628.97,-274.821 1577,-258 1565.15,-254.165 1565.59,-246.553 1554,-242 1431.45,-193.86 1280.66,-177.752 1176.71,-172.67"/>
<ellipse fill="none" stroke="#e14a3b" cx="2652.9" cy="-445.469" rx="4.00001" ry="4.00001"/>
<polygon fill="#e14a3b" stroke="#e14a3b" points="1176.48,-172.659 1166.69,-167.703 1171.48,-172.428 1166.49,-172.198 1166.49,-172.198 1166.49,-172.198 1171.48,-172.428 1166.28,-176.693 1176.48,-172.659 1176.48,-172.659"/>
<text text-anchor="middle" x="1600" y="-246.3" font-family="Times,serif" font-size="14.00">taggings</text>
</g>
<!-- ListItem&#45;&gt;ActsAsTaggableOn::Tagging -->
<g id="edge10" class="edge"><title>ListItem&#45;&gt;ActsAsTaggableOn::Tagging</title>
<path fill="none" stroke="#839f47" d="M2652.05,-441.297C2641.13,-389.397 2616.03,-312.726 2560,-276 2517.52,-248.158 1694.31,-273.674 1646,-258 1634.16,-254.157 1634.63,-246.455 1623,-242 1541.95,-210.949 1307.58,-189.298 1165.87,-178.62"/>
<ellipse fill="none" stroke="#839f47" cx="2652.89" cy="-445.483" rx="4.00001" ry="4.00001"/>
<polygon fill="#839f47" stroke="#839f47" points="1165.8,-178.615 1156.16,-173.383 1160.81,-178.243 1155.83,-177.87 1155.83,-177.87 1155.83,-177.87 1160.81,-178.243 1155.49,-182.358 1165.8,-178.615 1165.8,-178.615"/>
<text text-anchor="middle" x="1681" y="-246.3" font-family="Times,serif" font-size="14.00">tag_taggings</text>
</g>
<!-- ListItem&#45;&gt;ActsAsTaggableOn::Tagging -->
<g id="edge14" class="edge"><title>ListItem&#45;&gt;ActsAsTaggableOn::Tagging</title>
<path fill="none" stroke="#9a3c53" d="M2652.03,-441.322C2641.1,-389.442 2615.99,-312.785 2560,-276 2521.68,-250.828 1777.89,-274.186 1735,-258 1724.67,-254.102 1726.15,-246.332 1716,-242 1621.09,-201.506 1336.87,-182.98 1173.01,-175.463"/>
<ellipse fill="none" stroke="#9a3c53" cx="2652.88" cy="-445.505" rx="4.00001" ry="4.00001"/>
<polygon fill="#9a3c53" stroke="#9a3c53" points="1172.87,-175.456 1163.08,-170.509 1167.87,-175.231 1162.88,-175.005 1162.88,-175.005 1162.88,-175.005 1167.87,-175.231 1162.68,-179.5 1172.87,-175.456 1172.87,-175.456"/>
<text text-anchor="middle" x="1803" y="-246.3" font-family="Times,serif" font-size="14.00">game_category_taggings</text>
</g>
<!-- ListItem&#45;&gt;ActsAsTaggableOn::Tagging -->
<g id="edge18" class="edge"><title>ListItem&#45;&gt;ActsAsTaggableOn::Tagging</title>
<path fill="none" stroke="#e06566" d="M2647.35,-441.4C2633.29,-392.938 2606.24,-321.802 2560,-276 2546.86,-262.979 2501.99,-246.31 2484,-242 2237.64,-182.985 1477.41,-172.933 1176.98,-171.29"/>
<ellipse fill="none" stroke="#e06566" cx="2648.49" cy="-445.426" rx="4.00001" ry="4.00001"/>
<polygon fill="#e06566" stroke="#e06566" points="1176.93,-171.289 1166.95,-166.737 1171.93,-171.263 1166.93,-171.237 1166.93,-171.237 1166.93,-171.237 1171.93,-171.263 1166.9,-175.737 1176.93,-171.289 1176.93,-171.289"/>
<text text-anchor="middle" x="2587" y="-246.3" font-family="Times,serif" font-size="14.00">game_name_taggings</text>
</g>
<!-- ActsAsTaggableOn::Tag -->
<g id="node21" class="node"><title>ActsAsTaggableOn::Tag</title>
<ellipse fill="none" stroke="black" cx="2503" cy="-170" rx="98.1881" ry="18"/>
<text text-anchor="middle" x="2503" y="-166.3" font-family="Times,serif" font-size="14.00">ActsAsTaggableOn::Tag</text>
</g>
<!-- ListItem&#45;&gt;ActsAsTaggableOn::Tag -->
<g id="edge8" class="edge"><title>ListItem&#45;&gt;ActsAsTaggableOn::Tag</title>
<path fill="none" stroke="#6f0d38" d="M2683,-440.086C2706.51,-390.935 2747.44,-319.544 2803,-276 2821.92,-261.172 2840.12,-277.622 2854,-258 2858.11,-252.195 2858.5,-247.504 2854,-242 2822.98,-204.081 2697.14,-185.941 2604.97,-177.599"/>
<polygon fill="#6f0d38" stroke="#6f0d38" points="2682.92,-440.248 2674.6,-447.386 2680.79,-444.774 2678.67,-449.299 2678.67,-449.299 2678.67,-449.299 2680.79,-444.774 2682.74,-451.213 2682.92,-440.248 2682.92,-440.248"/>
<polygon fill="#6f0d38" stroke="#6f0d38" points="2604.72,-177.577 2595.15,-172.219 2599.74,-177.139 2594.76,-176.701 2594.76,-176.701 2594.76,-176.701 2599.74,-177.139 2594.36,-181.184 2604.72,-177.577 2604.72,-177.577"/>
<text text-anchor="middle" x="2883.5" y="-246.3" font-family="Times,serif" font-size="14.00">base_tags</text>
</g>
<!-- ListItem&#45;&gt;ActsAsTaggableOn::Tag -->
<g id="edge12" class="edge"><title>ListItem&#45;&gt;ActsAsTaggableOn::Tag</title>
<path fill="none" stroke="#9524f1" d="M2680.38,-439.881C2702.51,-388.987 2742.94,-314.961 2803,-276 2846.28,-247.919 2947.23,-281.467 2914,-242 2875.78,-196.613 2718.06,-180.24 2609.5,-174.333"/>
<polygon fill="#9524f1" stroke="#9524f1" points="2680.37,-439.899 2672.32,-447.341 2678.42,-444.5 2676.46,-449.102 2676.46,-449.102 2676.46,-449.102 2678.42,-444.5 2680.6,-450.863 2680.37,-439.899 2680.37,-439.899"/>
<polygon fill="#9524f1" stroke="#9524f1" points="2609.47,-174.332 2599.72,-169.316 2604.48,-174.071 2599.49,-173.81 2599.49,-173.81 2599.49,-173.81 2604.48,-174.071 2599.25,-178.304 2609.47,-174.332 2609.47,-174.332"/>
<text text-anchor="middle" x="2931" y="-246.3" font-family="Times,serif" font-size="14.00">tags</text>
</g>
<!-- ListItem&#45;&gt;ActsAsTaggableOn::Tag -->
<g id="edge16" class="edge"><title>ListItem&#45;&gt;ActsAsTaggableOn::Tag</title>
<path fill="none" stroke="#f85568" d="M2675.01,-439.565C2686.69,-385.022 2695.21,-300.921 2657,-242 2639.08,-214.362 2607.4,-197.32 2577.42,-186.892"/>
<polygon fill="#f85568" stroke="#f85568" points="2674.99,-439.635 2668.41,-448.406 2673.9,-444.514 2672.8,-449.392 2672.8,-449.392 2672.8,-449.392 2673.9,-444.514 2677.19,-450.378 2674.99,-439.635 2674.99,-439.635"/>
<polygon fill="#f85568" stroke="#f85568" points="2577.27,-186.843 2569.16,-179.457 2572.52,-185.288 2567.76,-183.734 2567.76,-183.734 2567.76,-183.734 2572.52,-185.288 2566.37,-188.011 2577.27,-186.843 2577.27,-186.843"/>
<text text-anchor="middle" x="2705" y="-246.3" font-family="Times,serif" font-size="14.00">game_category</text>
</g>
<!-- ListItem&#45;&gt;ActsAsTaggableOn::Tag -->
<g id="edge20" class="edge"><title>ListItem&#45;&gt;ActsAsTaggableOn::Tag</title>
<path fill="none" stroke="#e8f9f9" d="M2706.38,-441.058C2748.05,-386.787 2796.28,-302.06 2751,-242 2730.94,-215.395 2650.42,-195.732 2586.5,-183.929"/>
<polygon fill="#e8f9f9" stroke="#e8f9f9" points="2706.19,-441.295 2696.48,-446.393 2703.11,-445.232 2700.03,-449.168 2700.03,-449.168 2700.03,-449.168 2703.11,-445.232 2703.57,-451.943 2706.19,-441.295 2706.19,-441.295"/>
<polygon fill="#e8f9f9" stroke="#e8f9f9" points="2586.24,-183.881 2577.2,-177.674 2581.32,-182.992 2576.4,-182.102 2576.4,-182.102 2576.4,-182.102 2581.32,-182.992 2575.6,-186.53 2586.24,-183.881 2586.24,-183.881"/>
<text text-anchor="middle" x="2791.5" y="-246.3" font-family="Times,serif" font-size="14.00">game_name</text>
</g>
<!-- Progress -->
<g id="node4" class="node"><title>Progress</title>
<polyline fill="none" stroke="black" points="258.5,-132 365.5,-132 "/>
<path fill="none" stroke="black" d="M365.5,-132C371.5,-132 377.5,-138 377.5,-144"/>
<polyline fill="none" stroke="black" points="377.5,-144 377.5,-196 "/>
<path fill="none" stroke="black" d="M377.5,-196C377.5,-202 371.5,-208 365.5,-208"/>
<polyline fill="none" stroke="black" points="365.5,-208 258.5,-208 "/>
<path fill="none" stroke="black" d="M258.5,-208C252.5,-208 246.5,-202 246.5,-196"/>
<polyline fill="none" stroke="black" points="246.5,-196 246.5,-144 "/>
<path fill="none" stroke="black" d="M246.5,-144C246.5,-138 252.5,-132 258.5,-132"/>
<text text-anchor="middle" x="312" y="-192.8" font-family="Times,serif" font-size="14.00">Progress</text>
<polyline fill="none" stroke="black" points="246.5,-185 377.5,-185 "/>
<text text-anchor="start" x="254.5" y="-169.8" font-family="Times,serif" font-size="14.00">complete :text</text>
<text text-anchor="start" x="254.5" y="-154.8" font-family="Times,serif" font-size="14.00">created_at :datetime</text>
<text text-anchor="start" x="254.5" y="-139.8" font-family="Times,serif" font-size="14.00">updated_at :datetime</text>
</g>
<!-- Template -->
<g id="node5" class="node"><title>Template</title>
<polyline fill="none" stroke="black" points="1174.5,-449.5 1281.5,-449.5 "/>
<path fill="none" stroke="black" d="M1281.5,-449.5C1287.5,-449.5 1293.5,-455.5 1293.5,-461.5"/>
<polyline fill="none" stroke="black" points="1293.5,-461.5 1293.5,-528.5 "/>
<path fill="none" stroke="black" d="M1293.5,-528.5C1293.5,-534.5 1287.5,-540.5 1281.5,-540.5"/>
<polyline fill="none" stroke="black" points="1281.5,-540.5 1174.5,-540.5 "/>
<path fill="none" stroke="black" d="M1174.5,-540.5C1168.5,-540.5 1162.5,-534.5 1162.5,-528.5"/>
<polyline fill="none" stroke="black" points="1162.5,-528.5 1162.5,-461.5 "/>
<path fill="none" stroke="black" d="M1162.5,-461.5C1162.5,-455.5 1168.5,-449.5 1174.5,-449.5"/>
<text text-anchor="middle" x="1228" y="-525.3" font-family="Times,serif" font-size="14.00">Template</text>
<polyline fill="none" stroke="black" points="1162.5,-517.5 1293.5,-517.5 "/>
<text text-anchor="start" x="1170.5" y="-502.3" font-family="Times,serif" font-size="14.00">name :string</text>
<text text-anchor="start" x="1170.5" y="-487.3" font-family="Times,serif" font-size="14.00">body :text</text>
<text text-anchor="start" x="1170.5" y="-472.3" font-family="Times,serif" font-size="14.00">created_at :datetime</text>
<text text-anchor="start" x="1170.5" y="-457.3" font-family="Times,serif" font-size="14.00">updated_at :datetime</text>
</g>
<!-- Template&#45;&gt;ActsAsTaggableOn::Tagging -->
<g id="edge22" class="edge"><title>Template&#45;&gt;ActsAsTaggableOn::Tagging</title>
<path fill="none" stroke="#eeea21" d="M1155.71,-448.288C1097.34,-406.713 1019.46,-339.495 985,-258 974.607,-233.419 995.627,-209.844 1016.97,-193.451"/>
<ellipse fill="none" stroke="#eeea21" cx="1159.1" cy="-450.675" rx="4.00002" ry="4.00002"/>
<polygon fill="#eeea21" stroke="#eeea21" points="1017.01,-193.418 1027.75,-191.17 1021.06,-190.475 1025.1,-187.532 1025.1,-187.532 1025.1,-187.532 1021.06,-190.475 1022.45,-183.894 1017.01,-193.418 1017.01,-193.418"/>
<text text-anchor="middle" x="1008" y="-246.3" font-family="Times,serif" font-size="14.00">taggings</text>
</g>
<!-- Template&#45;&gt;ActsAsTaggableOn::Tagging -->
<g id="edge26" class="edge"><title>Template&#45;&gt;ActsAsTaggableOn::Tagging</title>
<path fill="none" stroke="#c048c5" d="M1175.9,-443.585C1134.02,-399.211 1078.31,-330.521 1054,-258 1047.56,-238.786 1047.6,-215.818 1049.09,-198.307"/>
<ellipse fill="none" stroke="#c048c5" cx="1178.7" cy="-446.517" rx="4.00002" ry="4.00002"/>
<polygon fill="#c048c5" stroke="#c048c5" points="1049.11,-198.135 1054.63,-188.665 1049.63,-193.163 1050.16,-188.191 1050.16,-188.191 1050.16,-188.191 1049.63,-193.163 1045.69,-187.716 1049.11,-198.135 1049.11,-198.135"/>
<text text-anchor="middle" x="1089" y="-246.3" font-family="Times,serif" font-size="14.00">tag_taggings</text>
</g>
<!-- Template&#45;&gt;ActsAsTaggableOn::Tagging -->
<g id="edge30" class="edge"><title>Template&#45;&gt;ActsAsTaggableOn::Tagging</title>
<path fill="none" stroke="#058121" d="M1155.24,-445.593C1075.15,-394.779 940.881,-316.729 814,-276 786.022,-267.019 702.312,-280.147 683,-258 646.222,-215.823 820.585,-191.345 942.46,-179.627"/>
<ellipse fill="none" stroke="#058121" cx="1158.97" cy="-447.969" rx="4.00002" ry="4.00002"/>
<polygon fill="#058121" stroke="#058121" points="942.652,-179.609 953.031,-183.149 947.63,-179.139 952.608,-178.669 952.608,-178.669 952.608,-178.669 947.63,-179.139 952.185,-174.189 942.652,-179.609 942.652,-179.609"/>
<text text-anchor="middle" x="751" y="-246.3" font-family="Times,serif" font-size="14.00">game_category_taggings</text>
</g>
<!-- Template&#45;&gt;ActsAsTaggableOn::Tagging -->
<g id="edge34" class="edge"><title>Template&#45;&gt;ActsAsTaggableOn::Tagging</title>
<path fill="none" stroke="#572671" d="M1154.78,-471.363C1066.36,-439.625 921.716,-372.558 859,-258 835.122,-214.385 890.089,-192.581 947.536,-181.711"/>
<ellipse fill="none" stroke="#572671" cx="1158.59" cy="-472.713" rx="4.00001" ry="4.00001"/>
<polygon fill="#572671" stroke="#572671" points="947.672,-181.687 958.306,-184.362 952.594,-180.81 957.517,-179.932 957.517,-179.932 957.517,-179.932 952.594,-180.81 956.727,-175.502 947.672,-181.687 947.672,-181.687"/>
<text text-anchor="middle" x="919" y="-246.3" font-family="Times,serif" font-size="14.00">game_name_taggings</text>
</g>
<!-- Template&#45;&gt;ActsAsTaggableOn::Tag -->
<g id="edge24" class="edge"><title>Template&#45;&gt;ActsAsTaggableOn::Tag</title>
<path fill="none" stroke="#63e17b" d="M1269.59,-441.154C1314.58,-388.498 1391.57,-310.644 1478,-276 1559.97,-243.143 1791.35,-286.329 1875,-258 1886.79,-254.005 1886.36,-246.414 1898,-242 1987.48,-208.084 2252.78,-186.639 2400.61,-176.982"/>
<polygon fill="#63e17b" stroke="#63e17b" points="1269.37,-441.415 1259.48,-446.151 1266.15,-445.234 1262.92,-449.054 1262.92,-449.054 1262.92,-449.054 1266.15,-445.234 1266.36,-451.958 1269.37,-441.415 1269.37,-441.415"/>
<polygon fill="#63e17b" stroke="#63e17b" points="2400.63,-176.98 2410.9,-180.825 2405.62,-176.658 2410.61,-176.335 2410.61,-176.335 2410.61,-176.335 2405.62,-176.658 2410.32,-171.844 2400.63,-176.98 2400.63,-176.98"/>
<text text-anchor="middle" x="1924.5" y="-246.3" font-family="Times,serif" font-size="14.00">base_tags</text>
</g>
<!-- Template&#45;&gt;ActsAsTaggableOn::Tag -->
<g id="edge28" class="edge"><title>Template&#45;&gt;ActsAsTaggableOn::Tag</title>
<path fill="none" stroke="#91dffe" d="M1269.1,-441.384C1313.96,-388.532 1391.08,-310.167 1478,-276 1594.5,-230.205 1922.17,-297.362 2041,-258 2052.82,-254.084 2052.45,-246.666 2064,-242 2172.32,-198.223 2305.98,-181.392 2397.17,-174.947"/>
<polygon fill="#91dffe" stroke="#91dffe" points="1268.88,-441.651 1259.01,-446.421 1265.67,-445.482 1262.45,-449.313 1262.45,-449.313 1262.45,-449.313 1265.67,-445.482 1265.9,-452.204 1268.88,-441.651 1268.88,-441.651"/>
<polygon fill="#91dffe" stroke="#91dffe" points="2397.26,-174.94 2407.54,-178.755 2402.25,-174.603 2407.24,-174.265 2407.24,-174.265 2407.24,-174.265 2402.25,-174.603 2406.94,-169.775 2397.26,-174.94 2397.26,-174.94"/>
<text text-anchor="middle" x="2075" y="-246.3" font-family="Times,serif" font-size="14.00">tags</text>
</g>
<!-- Template&#45;&gt;ActsAsTaggableOn::Tag -->
<g id="edge32" class="edge"><title>Template&#45;&gt;ActsAsTaggableOn::Tag</title>
<path fill="none" stroke="#9ed833" d="M1269.09,-441.343C1313.93,-388.456 1391.04,-310.064 1478,-276 1603.86,-226.697 1959.72,-306.217 2086,-258 2096.31,-254.062 2095,-246.684 2105,-242 2197.74,-198.543 2314.06,-181.559 2396.95,-174.988"/>
<polygon fill="#9ed833" stroke="#9ed833" points="1268.86,-441.612 1258.99,-446.386 1265.65,-445.444 1262.44,-449.276 1262.44,-449.276 1262.44,-449.276 1265.65,-445.444 1265.89,-452.167 1268.86,-441.612 1268.86,-441.612"/>
<polygon fill="#9ed833" stroke="#9ed833" points="2397.17,-174.971 2407.48,-178.706 2402.16,-174.595 2407.14,-174.219 2407.14,-174.219 2407.14,-174.219 2402.16,-174.595 2406.81,-169.732 2397.17,-174.971 2397.17,-174.971"/>
<text text-anchor="middle" x="2147" y="-246.3" font-family="Times,serif" font-size="14.00">game_category</text>
</g>
<!-- Template&#45;&gt;ActsAsTaggableOn::Tag -->
<g id="edge36" class="edge"><title>Template&#45;&gt;ActsAsTaggableOn::Tag</title>
<path fill="none" stroke="#77eb18" d="M1269.15,-441.491C1314.04,-388.725 1391.19,-310.431 1478,-276 1575.78,-237.22 1852.89,-295.936 1951,-258 1961.3,-254.019 1959.9,-246.463 1970,-242 2045.26,-208.737 2269.61,-187.618 2402.03,-177.69"/>
<polygon fill="#77eb18" stroke="#77eb18" points="1268.93,-441.752 1259.05,-446.509 1265.71,-445.579 1262.49,-449.405 1262.49,-449.405 1262.49,-449.405 1265.71,-445.579 1265.93,-452.302 1268.93,-441.752 1268.93,-441.752"/>
<polygon fill="#77eb18" stroke="#77eb18" points="2402.22,-177.677 2412.52,-181.425 2407.2,-177.307 2412.19,-176.937 2412.19,-176.937 2412.19,-176.937 2407.2,-177.307 2411.86,-172.449 2402.22,-177.677 2402.22,-177.677"/>
<text text-anchor="middle" x="2003.5" y="-246.3" font-family="Times,serif" font-size="14.00">game_name</text>
</g>
<!-- User -->
<g id="node6" class="node"><title>User</title>
<polyline fill="none" stroke="black" points="12,-277 188,-277 "/>
<path fill="none" stroke="black" d="M188,-277C194,-277 200,-283 200,-289"/>
<polyline fill="none" stroke="black" points="200,-289 200,-701 "/>
<path fill="none" stroke="black" d="M200,-701C200,-707 194,-713 188,-713"/>
<polyline fill="none" stroke="black" points="188,-713 12,-713 "/>
<path fill="none" stroke="black" d="M12,-713C6,-713 0,-707 0,-701"/>
<polyline fill="none" stroke="black" points="0,-701 0,-289 "/>
<path fill="none" stroke="black" d="M0,-289C0,-283 6,-277 12,-277"/>
<text text-anchor="middle" x="100" y="-697.8" font-family="Times,serif" font-size="14.00">User</text>
<polyline fill="none" stroke="black" points="0,-690 200,-690 "/>
<text text-anchor="start" x="8" y="-674.8" font-family="Times,serif" font-size="14.00">firstname :string</text>
<text text-anchor="start" x="8" y="-659.8" font-family="Times,serif" font-size="14.00">lastname :string</text>
<text text-anchor="start" x="8" y="-644.8" font-family="Times,serif" font-size="14.00">avatar :string</text>
<text text-anchor="start" x="8" y="-629.8" font-family="Times,serif" font-size="14.00">homepage :string</text>
<text text-anchor="start" x="8" y="-614.8" font-family="Times,serif" font-size="14.00">admin :boolean</text>
<text text-anchor="start" x="8" y="-599.8" font-family="Times,serif" font-size="14.00">public :boolean</text>
<text text-anchor="start" x="8" y="-584.8" font-family="Times,serif" font-size="14.00">email :string</text>
<text text-anchor="start" x="8" y="-569.8" font-family="Times,serif" font-size="14.00">password :string</text>
<text text-anchor="start" x="8" y="-554.8" font-family="Times,serif" font-size="14.00">encrypted_password :string</text>
<text text-anchor="start" x="8" y="-539.8" font-family="Times,serif" font-size="14.00">reset_password_token :string</text>
<text text-anchor="start" x="8" y="-524.8" font-family="Times,serif" font-size="14.00">reset_password_sent_at :datetime</text>
<text text-anchor="start" x="8" y="-509.8" font-family="Times,serif" font-size="14.00">remember_created_at :datetime</text>
<text text-anchor="start" x="8" y="-494.8" font-family="Times,serif" font-size="14.00">current_sign_in_at :datetime</text>
<text text-anchor="start" x="8" y="-479.8" font-family="Times,serif" font-size="14.00">last_sign_in_at :datetime</text>
<text text-anchor="start" x="8" y="-464.8" font-family="Times,serif" font-size="14.00">current_sign_in_ip :string</text>
<text text-anchor="start" x="8" y="-449.8" font-family="Times,serif" font-size="14.00">last_sign_in_ip :string</text>
<text text-anchor="start" x="8" y="-434.8" font-family="Times,serif" font-size="14.00">password_salt :string</text>
<text text-anchor="start" x="8" y="-419.8" font-family="Times,serif" font-size="14.00">confirmation_token :string</text>
<text text-anchor="start" x="8" y="-404.8" font-family="Times,serif" font-size="14.00">confirmed_at :datetime</text>
<text text-anchor="start" x="8" y="-389.8" font-family="Times,serif" font-size="14.00">confirmation_sent_at :datetime</text>
<text text-anchor="start" x="8" y="-374.8" font-family="Times,serif" font-size="14.00">unconfirmed_email :string</text>
<text text-anchor="start" x="8" y="-359.8" font-family="Times,serif" font-size="14.00">failed_attempts :integer</text>
<text text-anchor="start" x="8" y="-344.8" font-family="Times,serif" font-size="14.00">unlock_token :string</text>
<text text-anchor="start" x="8" y="-329.8" font-family="Times,serif" font-size="14.00">locked_at :datetime</text>
<text text-anchor="start" x="8" y="-314.8" font-family="Times,serif" font-size="14.00">authentication_token :string</text>
<text text-anchor="start" x="8" y="-299.8" font-family="Times,serif" font-size="14.00">created_at :datetime</text>
<text text-anchor="start" x="8" y="-284.8" font-family="Times,serif" font-size="14.00">updated_at :datetime</text>
</g>
<!-- User&#45;&gt;Progress -->
<g id="edge38" class="edge"><title>User&#45;&gt;Progress</title>
<path fill="none" stroke="#a7208c" d="M193.425,-269.943C199.929,-260.215 206.786,-250.842 214,-242 222.202,-231.946 232.15,-222.611 242.525,-214.233"/>
<ellipse fill="none" stroke="#a7208c" cx="191.17" cy="-273.386" rx="4.00002" ry="4.00002"/>
<polygon fill="#a7208c" stroke="#a7208c" points="242.625,-214.155 253.282,-211.57 246.572,-211.086 250.519,-208.017 250.519,-208.017 250.519,-208.017 246.572,-211.086 247.757,-204.465 242.625,-214.155 242.625,-214.155"/>
</g>
<!-- List -->
<g id="node13" class="node"><title>List</title>
<polyline fill="none" stroke="black" points="2632.5,-926.5 2739.5,-926.5 "/>
<path fill="none" stroke="black" d="M2739.5,-926.5C2745.5,-926.5 2751.5,-932.5 2751.5,-938.5"/>
<polyline fill="none" stroke="black" points="2751.5,-938.5 2751.5,-1005.5 "/>
<path fill="none" stroke="black" d="M2751.5,-1005.5C2751.5,-1011.5 2745.5,-1017.5 2739.5,-1017.5"/>
<polyline fill="none" stroke="black" points="2739.5,-1017.5 2632.5,-1017.5 "/>
<path fill="none" stroke="black" d="M2632.5,-1017.5C2626.5,-1017.5 2620.5,-1011.5 2620.5,-1005.5"/>
<polyline fill="none" stroke="black" points="2620.5,-1005.5 2620.5,-938.5 "/>
<path fill="none" stroke="black" d="M2620.5,-938.5C2620.5,-932.5 2626.5,-926.5 2632.5,-926.5"/>
<text text-anchor="middle" x="2686" y="-1002.3" font-family="Times,serif" font-size="14.00">List</text>
<polyline fill="none" stroke="black" points="2620.5,-994.5 2751.5,-994.5 "/>
<text text-anchor="start" x="2628.5" y="-979.3" font-family="Times,serif" font-size="14.00">name :string</text>
<text text-anchor="start" x="2628.5" y="-964.3" font-family="Times,serif" font-size="14.00">info :text</text>
<text text-anchor="start" x="2628.5" y="-949.3" font-family="Times,serif" font-size="14.00">created_at :datetime</text>
<text text-anchor="start" x="2628.5" y="-934.3" font-family="Times,serif" font-size="14.00">updated_at :datetime</text>
</g>
<!-- User&#45;&gt;List -->
<g id="edge40" class="edge"><title>User&#45;&gt;List</title>
<path fill="none" stroke="#113982" d="M105.733,-723.125C119.584,-793.237 148.317,-863.61 205,-908 230.513,-927.98 2438.82,-917.635 2610.22,-928.006"/>
<polygon fill="#113982" stroke="#113982" points="105.721,-723.065 108.298,-712.406 104.798,-718.151 103.875,-713.237 103.875,-713.237 103.875,-713.237 104.798,-718.151 99.4527,-714.067 105.721,-723.065 105.721,-723.065"/>
<polygon fill="#113982" stroke="#113982" points="2610.25,-928.008 2619.73,-933.516 2615.22,-928.524 2620.19,-929.04 2620.19,-929.04 2620.19,-929.04 2615.22,-928.524 2620.66,-924.564 2610.25,-928.008 2610.25,-928.008"/>
</g>
<!-- Home -->
<g id="node7" class="node"><title>Home</title>
<polyline fill="none" stroke="black" points="2844.5,-941.5 2951.5,-941.5 "/>
<path fill="none" stroke="black" d="M2951.5,-941.5C2957.5,-941.5 2963.5,-947.5 2963.5,-953.5"/>
<polyline fill="none" stroke="black" points="2963.5,-953.5 2963.5,-990.5 "/>
<path fill="none" stroke="black" d="M2963.5,-990.5C2963.5,-996.5 2957.5,-1002.5 2951.5,-1002.5"/>
<polyline fill="none" stroke="black" points="2951.5,-1002.5 2844.5,-1002.5 "/>
<path fill="none" stroke="black" d="M2844.5,-1002.5C2838.5,-1002.5 2832.5,-996.5 2832.5,-990.5"/>
<polyline fill="none" stroke="black" points="2832.5,-990.5 2832.5,-953.5 "/>
<path fill="none" stroke="black" d="M2832.5,-953.5C2832.5,-947.5 2838.5,-941.5 2844.5,-941.5"/>
<text text-anchor="middle" x="2898" y="-987.3" font-family="Times,serif" font-size="14.00">Home</text>
<polyline fill="none" stroke="black" points="2832.5,-979.5 2963.5,-979.5 "/>
<text text-anchor="start" x="2840.5" y="-964.3" font-family="Times,serif" font-size="14.00">created_at :datetime</text>
<text text-anchor="start" x="2840.5" y="-949.3" font-family="Times,serif" font-size="14.00">updated_at :datetime</text>
</g>
<!-- SocialLink -->
<g id="node8" class="node"><title>SocialLink</title>
<polyline fill="none" stroke="black" points="1499.5,-449.5 1606.5,-449.5 "/>
<path fill="none" stroke="black" d="M1606.5,-449.5C1612.5,-449.5 1618.5,-455.5 1618.5,-461.5"/>
<polyline fill="none" stroke="black" points="1618.5,-461.5 1618.5,-528.5 "/>
<path fill="none" stroke="black" d="M1618.5,-528.5C1618.5,-534.5 1612.5,-540.5 1606.5,-540.5"/>
<polyline fill="none" stroke="black" points="1606.5,-540.5 1499.5,-540.5 "/>
<path fill="none" stroke="black" d="M1499.5,-540.5C1493.5,-540.5 1487.5,-534.5 1487.5,-528.5"/>
<polyline fill="none" stroke="black" points="1487.5,-528.5 1487.5,-461.5 "/>
<path fill="none" stroke="black" d="M1487.5,-461.5C1487.5,-455.5 1493.5,-449.5 1499.5,-449.5"/>
<text text-anchor="middle" x="1553" y="-525.3" font-family="Times,serif" font-size="14.00">SocialLink</text>
<polyline fill="none" stroke="black" points="1487.5,-517.5 1618.5,-517.5 "/>
<text text-anchor="start" x="1495.5" y="-502.3" font-family="Times,serif" font-size="14.00">service_name :string</text>
<text text-anchor="start" x="1495.5" y="-487.3" font-family="Times,serif" font-size="14.00">identifier :string</text>
<text text-anchor="start" x="1495.5" y="-472.3" font-family="Times,serif" font-size="14.00">created_at :datetime</text>
<text text-anchor="start" x="1495.5" y="-457.3" font-family="Times,serif" font-size="14.00">updated_at :datetime</text>
</g>
<!-- SocialLink&#45;&gt;ActsAsTaggableOn::Tagging -->
<g id="edge42" class="edge"><title>SocialLink&#45;&gt;ActsAsTaggableOn::Tagging</title>
<path fill="none" stroke="#5183ab" d="M1511.27,-443.051C1465.72,-391.388 1387.76,-313.825 1302,-276 1238.55,-248.014 1210,-286.985 1147,-258 1130.85,-250.569 1098.19,-218.471 1075.96,-195.425"/>
<ellipse fill="none" stroke="#5183ab" cx="1514.03" cy="-446.207" rx="4.00002" ry="4.00002"/>
<polygon fill="#5183ab" stroke="#5183ab" points="1075.77,-195.229 1072.11,-184.893 1072.31,-191.617 1068.85,-188.005 1068.85,-188.005 1068.85,-188.005 1072.31,-191.617 1065.6,-191.116 1075.77,-195.229 1075.77,-195.229"/>
<text text-anchor="middle" x="1170" y="-246.3" font-family="Times,serif" font-size="14.00">taggings</text>
</g>
<!-- SocialLink&#45;&gt;ActsAsTaggableOn::Tagging -->
<g id="edge46" class="edge"><title>SocialLink&#45;&gt;ActsAsTaggableOn::Tagging</title>
<path fill="none" stroke="#4cb333" d="M1509.31,-443.247C1463.01,-392.847 1385.21,-317.304 1302,-276 1267.02,-258.638 1251.86,-273.461 1216,-258 1204.57,-253.07 1203.69,-248.387 1193,-242 1161.89,-223.413 1125.33,-204.98 1097.37,-191.555"/>
<ellipse fill="none" stroke="#4cb333" cx="1512.1" cy="-446.309" rx="4.00002" ry="4.00002"/>
<polygon fill="#4cb333" stroke="#4cb333" points="1097.27,-191.505 1090.18,-183.14 1092.75,-189.353 1088.24,-187.202 1088.24,-187.202 1088.24,-187.202 1092.75,-189.353 1086.3,-191.263 1097.27,-191.505 1097.27,-191.505"/>
<text text-anchor="middle" x="1251" y="-246.3" font-family="Times,serif" font-size="14.00">tag_taggings</text>
</g>
<!-- SocialLink&#45;&gt;ActsAsTaggableOn::Tagging -->
<g id="edge50" class="edge"><title>SocialLink&#45;&gt;ActsAsTaggableOn::Tagging</title>
<path fill="none" stroke="#98e741" d="M1502.3,-443.736C1431.99,-374.42 1310.73,-256.361 1286,-242 1239.5,-214.993 1181.7,-197.298 1135.3,-186.327"/>
<ellipse fill="none" stroke="#98e741" cx="1505.25" cy="-446.654" rx="4.00002" ry="4.00002"/>
<polygon fill="#98e741" stroke="#98e741" points="1135.03,-186.263 1126.29,-179.634 1130.16,-185.141 1125.28,-184.019 1125.28,-184.019 1125.28,-184.019 1130.16,-185.141 1124.27,-188.405 1135.03,-186.263 1135.03,-186.263"/>
<text text-anchor="middle" x="1348.5" y="-246.3" font-family="Times,serif" font-size="14.00">name_taggings</text>
</g>
<!-- SocialLink&#45;&gt;ActsAsTaggableOn::Tag -->
<g id="edge44" class="edge"><title>SocialLink&#45;&gt;ActsAsTaggableOn::Tag</title>
<path fill="none" stroke="#7c896b" d="M1607.65,-442.428C1667.49,-389.627 1768.9,-310.555 1873,-276 1961.45,-246.641 2205.16,-291.824 2292,-258 2302.29,-253.993 2301.46,-247.553 2311,-242 2351.63,-218.352 2401.54,-200.185 2440.29,-188.149"/>
<polygon fill="#7c896b" stroke="#7c896b" points="1607.31,-442.727 1596.85,-446.013 1603.57,-446.051 1599.84,-449.375 1599.84,-449.375 1599.84,-449.375 1603.57,-446.051 1602.83,-452.736 1607.31,-442.727 1607.31,-442.727"/>
<polygon fill="#7c896b" stroke="#7c896b" points="2440.32,-188.139 2451.2,-189.526 2445.11,-186.681 2449.89,-185.222 2449.89,-185.222 2449.89,-185.222 2445.11,-186.681 2448.58,-180.918 2440.32,-188.139 2440.32,-188.139"/>
<text text-anchor="middle" x="2337.5" y="-246.3" font-family="Times,serif" font-size="14.00">base_tags</text>
</g>
<!-- SocialLink&#45;&gt;ActsAsTaggableOn::Tag -->
<g id="edge48" class="edge"><title>SocialLink&#45;&gt;ActsAsTaggableOn::Tag</title>
<path fill="none" stroke="#0f05d2" d="M1608,-442.468C1667.96,-389.896 1769.28,-311.192 1873,-276 2007.89,-230.231 2058.33,-304.428 2193,-258 2204.77,-253.941 2204.66,-247.136 2216,-242 2280.87,-212.63 2359.71,-194.242 2418.33,-183.558"/>
<polygon fill="#0f05d2" stroke="#0f05d2" points="1607.67,-442.761 1597.2,-446.014 1603.92,-446.073 1600.18,-449.385 1600.18,-449.385 1600.18,-449.385 1603.92,-446.073 1603.16,-452.756 1607.67,-442.761 1607.67,-442.761"/>
<polygon fill="#0f05d2" stroke="#0f05d2" points="2418.45,-183.537 2429.09,-186.211 2423.37,-182.659 2428.3,-181.781 2428.3,-181.781 2428.3,-181.781 2423.37,-182.659 2427.51,-177.35 2418.45,-183.537 2418.45,-183.537"/>
<text text-anchor="middle" x="2227" y="-246.3" font-family="Times,serif" font-size="14.00">tags</text>
</g>
<!-- SocialLink&#45;&gt;ActsAsTaggableOn::Tag -->
<g id="edge52" class="edge"><title>SocialLink&#45;&gt;ActsAsTaggableOn::Tag</title>
<path fill="none" stroke="#486d93" d="M1607.69,-442.558C1667.57,-389.867 1769.01,-310.885 1873,-276 1949.99,-250.173 2162.42,-287.713 2238,-258 2248.27,-253.961 2247.26,-247.2 2257,-242 2309.48,-213.98 2374.32,-195.853 2424.25,-184.932"/>
<polygon fill="#486d93" stroke="#486d93" points="1607.36,-442.853 1596.89,-446.124 1603.62,-446.171 1599.88,-449.49 1599.88,-449.49 1599.88,-449.49 1603.62,-446.171 1602.87,-452.856 1607.36,-442.853 1607.36,-442.853"/>
<polygon fill="#486d93" stroke="#486d93" points="2424.25,-184.932 2434.97,-187.244 2429.14,-183.888 2434.03,-182.844 2434.03,-182.844 2434.03,-182.844 2429.14,-183.888 2433.09,-178.443 2424.25,-184.932 2424.25,-184.932"/>
<text text-anchor="middle" x="2272.5" y="-246.3" font-family="Times,serif" font-size="14.00">name</text>
</g>
<!-- ListLinks -->
<g id="node9" class="node"><title>ListLinks</title>
<polyline fill="none" stroke="black" points="1894.5,-464.5 2001.5,-464.5 "/>
<path fill="none" stroke="black" d="M2001.5,-464.5C2007.5,-464.5 2013.5,-470.5 2013.5,-476.5"/>
<polyline fill="none" stroke="black" points="2013.5,-476.5 2013.5,-513.5 "/>
<path fill="none" stroke="black" d="M2013.5,-513.5C2013.5,-519.5 2007.5,-525.5 2001.5,-525.5"/>
<polyline fill="none" stroke="black" points="2001.5,-525.5 1894.5,-525.5 "/>
<path fill="none" stroke="black" d="M1894.5,-525.5C1888.5,-525.5 1882.5,-519.5 1882.5,-513.5"/>
<polyline fill="none" stroke="black" points="1882.5,-513.5 1882.5,-476.5 "/>
<path fill="none" stroke="black" d="M1882.5,-476.5C1882.5,-470.5 1888.5,-464.5 1894.5,-464.5"/>
<text text-anchor="middle" x="1948" y="-510.3" font-family="Times,serif" font-size="14.00">ListLinks</text>
<polyline fill="none" stroke="black" points="1882.5,-502.5 2013.5,-502.5 "/>
<text text-anchor="start" x="1890.5" y="-487.3" font-family="Times,serif" font-size="14.00">created_at :datetime</text>
<text text-anchor="start" x="1890.5" y="-472.3" font-family="Times,serif" font-size="14.00">updated_at :datetime</text>
</g>
<!-- ListLinks&#45;&gt;ActsAsTaggableOn::Tagging -->
<g id="edge54" class="edge"><title>ListLinks&#45;&gt;ActsAsTaggableOn::Tagging</title>
<path fill="none" stroke="#a39e4b" d="M1908.91,-458.715C1851.6,-409.137 1739.34,-320.006 1627,-276 1577.19,-256.49 1557.7,-277.789 1508,-258 1496.43,-253.393 1496.54,-246.681 1485,-242 1384.12,-201.08 1260.89,-183.724 1171.9,-176.373"/>
<ellipse fill="none" stroke="#a39e4b" cx="1912.28" cy="-461.641" rx="4.00002" ry="4.00002"/>
<polygon fill="#a39e4b" stroke="#a39e4b" points="1171.74,-176.36 1162.13,-171.081 1166.76,-175.963 1161.77,-175.567 1161.77,-175.567 1161.77,-175.567 1166.76,-175.963 1161.41,-180.053 1171.74,-176.36 1171.74,-176.36"/>
<text text-anchor="middle" x="1531" y="-246.3" font-family="Times,serif" font-size="14.00">taggings</text>
</g>
<!-- ListLinks&#45;&gt;ActsAsTaggableOn::Tagging -->
<g id="edge58" class="edge"><title>ListLinks&#45;&gt;ActsAsTaggableOn::Tagging</title>
<path fill="none" stroke="#1485c4" d="M1910.55,-458.815C1854.11,-408.209 1741.59,-316.518 1627,-276 1536.18,-243.887 1500.04,-294.76 1411,-258 1400.8,-253.787 1401.93,-246.833 1392,-242 1319.99,-206.933 1231.14,-189.136 1162.47,-180.131"/>
<ellipse fill="none" stroke="#1485c4" cx="1913.53" cy="-461.499" rx="4.00002" ry="4.00002"/>
<polygon fill="#1485c4" stroke="#1485c4" points="1162.41,-180.124 1153.05,-174.401 1157.45,-179.494 1152.49,-178.865 1152.49,-178.865 1152.49,-178.865 1157.45,-179.494 1151.92,-183.33 1162.41,-180.124 1162.41,-180.124"/>
<text text-anchor="middle" x="1446" y="-246.3" font-family="Times,serif" font-size="14.00">tag_taggings</text>
</g>
<!-- ListLinks&#45;&gt;ActsAsTaggableOn::Tag -->
<g id="edge56" class="edge"><title>ListLinks&#45;&gt;ActsAsTaggableOn::Tag</title>
<path fill="none" stroke="#150be7" d="M2013.58,-459.671C2097.2,-415.332 2245.6,-334.715 2368,-258 2378.55,-251.387 2380.63,-248.891 2391,-242 2416.28,-225.204 2445.23,-206.878 2467.36,-193.052"/>
<polygon fill="#150be7" stroke="#150be7" points="2013.54,-459.692 2002.6,-460.394 2009.12,-462.032 2004.7,-464.371 2004.7,-464.371 2004.7,-464.371 2009.12,-462.032 2006.81,-468.348 2013.54,-459.692 2013.54,-459.692"/>
<polygon fill="#150be7" stroke="#150be7" points="2467.6,-192.899 2478.47,-191.428 2471.85,-190.254 2476.09,-187.609 2476.09,-187.609 2476.09,-187.609 2471.85,-190.254 2473.71,-183.79 2467.6,-192.899 2467.6,-192.899"/>
<text text-anchor="middle" x="2417.5" y="-246.3" font-family="Times,serif" font-size="14.00">base_tags</text>
</g>
<!-- ListLinks&#45;&gt;ActsAsTaggableOn::Tag -->
<g id="edge60" class="edge"><title>ListLinks&#45;&gt;ActsAsTaggableOn::Tag</title>
<path fill="none" stroke="#998935" d="M2023.47,-472.02C2127.26,-438.907 2315.74,-368.133 2444,-258 2463.78,-241.015 2479.86,-215.893 2490.21,-197.005"/>
<polygon fill="#998935" stroke="#998935" points="2023.23,-472.095 2012.34,-470.816 2018.46,-473.601 2013.7,-475.107 2013.7,-475.107 2013.7,-475.107 2018.46,-473.601 2015.05,-479.398 2023.23,-472.095 2023.23,-472.095"/>
<polygon fill="#998935" stroke="#998935" points="2490.27,-196.875 2498.93,-190.139 2492.61,-192.455 2494.95,-188.035 2494.95,-188.035 2494.95,-188.035 2492.61,-192.455 2490.97,-185.931 2490.27,-196.875 2490.27,-196.875"/>
<text text-anchor="middle" x="2469" y="-246.3" font-family="Times,serif" font-size="14.00">tags</text>
</g>
<!-- Account -->
<g id="node10" class="node"><title>Account</title>
<polyline fill="none" stroke="black" points="2993.5,-941.5 3100.5,-941.5 "/>
<path fill="none" stroke="black" d="M3100.5,-941.5C3106.5,-941.5 3112.5,-947.5 3112.5,-953.5"/>
<polyline fill="none" stroke="black" points="3112.5,-953.5 3112.5,-990.5 "/>
<path fill="none" stroke="black" d="M3112.5,-990.5C3112.5,-996.5 3106.5,-1002.5 3100.5,-1002.5"/>
<polyline fill="none" stroke="black" points="3100.5,-1002.5 2993.5,-1002.5 "/>
<path fill="none" stroke="black" d="M2993.5,-1002.5C2987.5,-1002.5 2981.5,-996.5 2981.5,-990.5"/>
<polyline fill="none" stroke="black" points="2981.5,-990.5 2981.5,-953.5 "/>
<path fill="none" stroke="black" d="M2981.5,-953.5C2981.5,-947.5 2987.5,-941.5 2993.5,-941.5"/>
<text text-anchor="middle" x="3047" y="-987.3" font-family="Times,serif" font-size="14.00">Account</text>
<polyline fill="none" stroke="black" points="2981.5,-979.5 3112.5,-979.5 "/>
<text text-anchor="start" x="2989.5" y="-964.3" font-family="Times,serif" font-size="14.00">created_at :datetime</text>
<text text-anchor="start" x="2989.5" y="-949.3" font-family="Times,serif" font-size="14.00">updated_at :datetime</text>
</g>
<!-- Location -->
<g id="node11" class="node"><title>Location</title>
<polyline fill="none" stroke="black" points="3055.5,-1 3162.5,-1 "/>
<path fill="none" stroke="black" d="M3162.5,-1C3168.5,-1 3174.5,-7 3174.5,-13"/>
<polyline fill="none" stroke="black" points="3174.5,-13 3174.5,-65 "/>
<path fill="none" stroke="black" d="M3174.5,-65C3174.5,-71 3168.5,-77 3162.5,-77"/>
<polyline fill="none" stroke="black" points="3162.5,-77 3055.5,-77 "/>
<path fill="none" stroke="black" d="M3055.5,-77C3049.5,-77 3043.5,-71 3043.5,-65"/>
<polyline fill="none" stroke="black" points="3043.5,-65 3043.5,-13 "/>
<path fill="none" stroke="black" d="M3043.5,-13C3043.5,-7 3049.5,-1 3055.5,-1"/>
<text text-anchor="middle" x="3109" y="-61.8" font-family="Times,serif" font-size="14.00">Location</text>
<polyline fill="none" stroke="black" points="3043.5,-54 3174.5,-54 "/>
<text text-anchor="start" x="3051.5" y="-38.8" font-family="Times,serif" font-size="14.00">coordinates :text</text>
<text text-anchor="start" x="3051.5" y="-23.8" font-family="Times,serif" font-size="14.00">created_at :datetime</text>
<text text-anchor="start" x="3051.5" y="-8.8" font-family="Times,serif" font-size="14.00">updated_at :datetime</text>
</g>
<!-- Map&#45;&gt;Location -->
<g id="edge62" class="edge"><title>Map&#45;&gt;Location</title>
<path fill="none" stroke="#335489" d="M3109,-108.736C3109,-101.516 3109,-94.2256 3109,-87.2278"/>
<ellipse fill="none" stroke="#335489" cx="3109" cy="-112.903" rx="4" ry="4"/>
<polygon fill="#335489" stroke="#335489" points="3109,-87.2269 3113.5,-77.2269 3109,-82.2269 3109,-77.2269 3109,-77.2269 3109,-77.2269 3109,-82.2269 3104.5,-77.227 3109,-87.2269 3109,-87.2269"/>
</g>
<!-- List&#45;&gt;ListItem -->
<g id="edge64" class="edge"><title>List&#45;&gt;ListItem</title>
<path fill="none" stroke="#7732a7" d="M2683.1,-918.059C2678.13,-827.278 2668.04,-642.818 2663,-550.786"/>
<ellipse fill="none" stroke="#7732a7" cx="2683.34" cy="-922.319" rx="4" ry="4"/>
<polygon fill="#7732a7" stroke="#7732a7" points="2662.99,-550.553 2666.93,-540.322 2662.71,-545.56 2662.44,-540.568 2662.44,-540.568 2662.44,-540.568 2662.71,-545.56 2657.95,-540.814 2662.99,-550.553 2662.99,-550.553"/>
</g>
<!-- List&#45;&gt;List -->
<g id="edge70" class="edge"><title>List&#45;&gt;List</title>
<path fill="none" stroke="#1d5e29" d="M2759.55,-981.13C2765.39,-979.131 2769,-976.088 2769,-972 2769,-968.445 2766.27,-965.68 2761.72,-963.705"/>
<ellipse fill="none" stroke="#1d5e29" cx="2755.64" cy="-982.066" rx="4.00001" ry="4.00001"/>
<polygon fill="#1d5e29" stroke="#1d5e29" points="2761.4,-963.62 2752.93,-956.66 2756.58,-962.312 2751.75,-961.003 2751.75,-961.003 2751.75,-961.003 2756.58,-962.312 2750.57,-965.346 2761.4,-963.62 2761.4,-963.62"/>
<text text-anchor="middle" x="2791.5" y="-968.3" font-family="Times,serif" font-size="14.00">children</text>
</g>
<!-- ExternalLink -->
<g id="node15" class="node"><title>ExternalLink</title>
<polyline fill="none" stroke="black" points="2449.5,-766.5 2556.5,-766.5 "/>
<path fill="none" stroke="black" d="M2556.5,-766.5C2562.5,-766.5 2568.5,-772.5 2568.5,-778.5"/>
<polyline fill="none" stroke="black" points="2568.5,-778.5 2568.5,-875.5 "/>
<path fill="none" stroke="black" d="M2568.5,-875.5C2568.5,-881.5 2562.5,-887.5 2556.5,-887.5"/>
<polyline fill="none" stroke="black" points="2556.5,-887.5 2449.5,-887.5 "/>
<path fill="none" stroke="black" d="M2449.5,-887.5C2443.5,-887.5 2437.5,-881.5 2437.5,-875.5"/>
<polyline fill="none" stroke="black" points="2437.5,-875.5 2437.5,-778.5 "/>
<path fill="none" stroke="black" d="M2437.5,-778.5C2437.5,-772.5 2443.5,-766.5 2449.5,-766.5"/>
<text text-anchor="middle" x="2503" y="-872.3" font-family="Times,serif" font-size="14.00">ExternalLink</text>
<polyline fill="none" stroke="black" points="2437.5,-864.5 2568.5,-864.5 "/>
<text text-anchor="start" x="2445.5" y="-849.3" font-family="Times,serif" font-size="14.00">href :string</text>
<text text-anchor="start" x="2445.5" y="-834.3" font-family="Times,serif" font-size="14.00">name :string</text>
<text text-anchor="start" x="2445.5" y="-819.3" font-family="Times,serif" font-size="14.00">title :string</text>
<text text-anchor="start" x="2445.5" y="-804.3" font-family="Times,serif" font-size="14.00">description :string</text>
<text text-anchor="start" x="2445.5" y="-789.3" font-family="Times,serif" font-size="14.00">created_at :datetime</text>
<text text-anchor="start" x="2445.5" y="-774.3" font-family="Times,serif" font-size="14.00">updated_at :datetime</text>
</g>
<!-- List&#45;&gt;ExternalLink -->
<g id="edge68" class="edge"><title>List&#45;&gt;ExternalLink</title>
<path fill="none" stroke="#fbfded" d="M2620.67,-919.951C2606.41,-908.81 2591.23,-896.946 2576.67,-885.571"/>
<polygon fill="#fbfded" stroke="#fbfded" points="2620.97,-920.185 2626.08,-929.888 2624.91,-923.263 2628.85,-926.342 2628.85,-926.342 2628.85,-926.342 2624.91,-923.263 2631.62,-922.796 2620.97,-920.185 2620.97,-920.185"/>
<polygon fill="#fbfded" stroke="#fbfded" points="2576.54,-885.467 2571.43,-875.764 2572.6,-882.389 2568.66,-879.31 2568.66,-879.31 2568.66,-879.31 2572.6,-882.389 2565.89,-882.856 2576.54,-885.467 2576.54,-885.467"/>
</g>
<!-- List&#45;&gt;ActsAsTaggableOn::Tagging -->
<g id="edge72" class="edge"><title>List&#45;&gt;ActsAsTaggableOn::Tagging</title>
<path fill="none" stroke="#07b123" d="M2612.44,-926.417C2611.96,-926.274 2611.48,-926.135 2611,-926 2556.59,-910.669 621.775,-941.17 576,-908 515.227,-863.961 534.161,-822.06 522,-748 485.459,-525.458 405.85,-406.615 560,-242 608.736,-189.955 799.26,-175.5 928.675,-171.803"/>
<ellipse fill="none" stroke="#07b123" cx="2616.4" cy="-927.761" rx="4.00001" ry="4.00001"/>
<polygon fill="#07b123" stroke="#07b123" points="929.054,-171.793 939.171,-176.024 934.052,-171.659 939.05,-171.525 939.05,-171.525 939.05,-171.525 934.052,-171.659 938.93,-167.027 929.054,-171.793 929.054,-171.793"/>
<text text-anchor="middle" x="545" y="-736.3" font-family="Times,serif" font-size="14.00">taggings</text>
</g>
<!-- List&#45;&gt;ActsAsTaggableOn::Tagging -->
<g id="edge76" class="edge"><title>List&#45;&gt;ActsAsTaggableOn::Tagging</title>
<path fill="none" stroke="#9d7c2e" d="M2612.42,-926.472C2611.95,-926.311 2611.47,-926.154 2611,-926 2181.79,-786.572 892.806,-1080.8 588,-748 511.78,-664.78 554.423,-324.892 631,-242 670.843,-198.871 822.366,-181.934 932.468,-175.287"/>
<ellipse fill="none" stroke="#9d7c2e" cx="2616.35" cy="-927.945" rx="4.00001" ry="4.00001"/>
<polygon fill="#9d7c2e" stroke="#9d7c2e" points="932.67,-175.275 942.915,-179.186 937.662,-174.984 942.653,-174.694 942.653,-174.694 942.653,-174.694 937.662,-174.984 942.392,-170.201 932.67,-175.275 932.67,-175.275"/>
<text text-anchor="middle" x="623" y="-736.3" font-family="Times,serif" font-size="14.00">tag_taggings</text>
</g>
<!-- List&#45;&gt;ActsAsTaggableOn::Tagging -->
<g id="edge80" class="edge"><title>List&#45;&gt;ActsAsTaggableOn::Tagging</title>
<path fill="none" stroke="#80d06d" d="M2612.44,-926.416C2611.96,-926.274 2611.48,-926.135 2611,-926 2550.91,-909.098 420.917,-933.622 364,-908 276.762,-868.728 254.275,-837.32 220,-748 178.116,-638.851 274.12,-316.761 364,-242 406.837,-206.369 748.789,-185.116 934.294,-176.098"/>
<ellipse fill="none" stroke="#80d06d" cx="2616.4" cy="-927.759" rx="4.00001" ry="4.00001"/>
<polygon fill="#80d06d" stroke="#80d06d" points="934.383,-176.094 944.588,-180.107 939.377,-175.853 944.371,-175.612 944.371,-175.612 944.371,-175.612 939.377,-175.853 944.155,-171.118 934.383,-176.094 934.383,-176.094"/>
<text text-anchor="middle" x="288" y="-736.3" font-family="Times,serif" font-size="14.00">game_category_taggings</text>
</g>
<!-- List&#45;&gt;ActsAsTaggableOn::Tagging -->
<g id="edge84" class="edge"><title>List&#45;&gt;ActsAsTaggableOn::Tagging</title>
<path fill="none" stroke="#cad2ca" d="M2612.44,-926.417C2611.96,-926.274 2611.48,-926.135 2611,-926 2501.91,-895.265 682.197,-929.924 571,-908 547.518,-903.37 540.601,-901.735 521,-888 297.316,-731.255 298.626,-492.618 465,-276 520.357,-203.926 775.553,-181.325 930.988,-174.237"/>
<ellipse fill="none" stroke="#cad2ca" cx="2616.4" cy="-927.761" rx="4.00001" ry="4.00001"/>
<polygon fill="#cad2ca" stroke="#cad2ca" points="931.089,-174.233 941.277,-178.288 936.084,-174.013 941.079,-173.793 941.079,-173.793 941.079,-173.793 936.084,-174.013 940.881,-169.297 931.089,-174.233 931.089,-174.233"/>
<text text-anchor="middle" x="449" y="-736.3" font-family="Times,serif" font-size="14.00">game_name_taggings</text>
</g>
<!-- List&#45;&gt;ActsAsTaggableOn::Tag -->
<g id="edge74" class="edge"><title>List&#45;&gt;ActsAsTaggableOn::Tag</title>
<path fill="none" stroke="#99df1d" d="M2760.14,-927.635C2826.76,-883.651 2919.43,-808.653 2955,-714 2991.91,-615.803 3031.29,-321.635 2963,-242 2918.58,-190.203 2732.59,-175.847 2611.14,-172.075"/>
<polygon fill="#99df1d" stroke="#99df1d" points="2760.11,-927.648 2749.28,-929.337 2755.93,-930.378 2751.74,-933.108 2751.74,-933.108 2751.74,-933.108 2755.93,-930.378 2754.19,-936.878 2760.11,-927.648 2760.11,-927.648"/>
<polygon fill="#99df1d" stroke="#99df1d" points="2611.05,-172.073 2601.18,-167.284 2606.05,-171.927 2601.05,-171.782 2601.05,-171.782 2601.05,-171.782 2606.05,-171.927 2600.92,-176.28 2611.05,-172.073 2611.05,-172.073"/>
<text text-anchor="middle" x="2972.5" y="-736.3" font-family="Times,serif" font-size="14.00">base_tags</text>
</g>
<!-- List&#45;&gt;ActsAsTaggableOn::Tag -->
<g id="edge78" class="edge"><title>List&#45;&gt;ActsAsTaggableOn::Tag</title>
<path fill="none" stroke="#b7964c" d="M2761.64,-948.989C2800.78,-935.326 2847.99,-915.144 2885,-888 2950.62,-839.874 2975.08,-824.438 3003,-748 3074.99,-550.889 3020.81,-483.717 2991,-276 2988.78,-260.527 2993.65,-252.419 2982,-242 2928.66,-194.308 2734.49,-178.649 2610.35,-173.509"/>
<polygon fill="#b7964c" stroke="#b7964c" points="2761.33,-949.092 2750.42,-948.063 2756.6,-950.707 2751.87,-952.322 2751.87,-952.322 2751.87,-952.322 2756.6,-950.707 2753.32,-956.581 2761.33,-949.092 2761.33,-949.092"/>
<polygon fill="#b7964c" stroke="#b7964c" points="2610.04,-173.497 2600.23,-168.603 2605.04,-173.298 2600.05,-173.1 2600.05,-173.1 2600.05,-173.1 2605.04,-173.298 2599.87,-177.596 2610.04,-173.497 2610.04,-173.497"/>
<text text-anchor="middle" x="3018" y="-736.3" font-family="Times,serif" font-size="14.00">tags</text>
</g>
<!-- List&#45;&gt;ActsAsTaggableOn::Tag -->
<g id="edge82" class="edge"><title>List&#45;&gt;ActsAsTaggableOn::Tag</title>
<path fill="none" stroke="#20f1de" d="M2761.04,-946.064C2781.43,-939.418 2803.53,-932.328 2824,-926 2881.51,-908.223 2906.84,-925.414 2954,-888 3168.63,-717.707 3121.93,-533.376 3028,-276 3021.29,-257.611 3017.07,-251.589 3000,-242 2934.34,-205.109 2730.83,-185.67 2605.52,-176.932"/>
<polygon fill="#20f1de" stroke="#20f1de" points="2761.01,-946.076 2750.1,-944.906 2756.25,-947.63 2751.5,-949.184 2751.5,-949.184 2751.5,-949.184 2756.25,-947.63 2752.9,-953.461 2761.01,-946.076 2761.01,-946.076"/>
<polygon fill="#20f1de" stroke="#20f1de" points="2605.49,-176.93 2595.82,-171.756 2600.5,-176.588 2595.51,-176.246 2595.51,-176.246 2595.51,-176.246 2600.5,-176.588 2595.2,-180.735 2605.49,-176.93 2605.49,-176.93"/>
<text text-anchor="middle" x="3122" y="-736.3" font-family="Times,serif" font-size="14.00">game_category</text>
</g>
<!-- List&#45;&gt;ActsAsTaggableOn::Tag -->
<g id="edge86" class="edge"><title>List&#45;&gt;ActsAsTaggableOn::Tag</title>
<path fill="none" stroke="#00f768" d="M2761.47,-944.044C2781.6,-937.498 2803.48,-930.963 2824,-926 2911.1,-904.937 2943.21,-930.681 3022,-888 3101.05,-845.179 3132.73,-830.692 3168,-748 3251.69,-551.793 3203.99,-450.282 3081,-276 3027.93,-200.805 2762.42,-179.447 2610.37,-173.39"/>
<polygon fill="#00f768" stroke="#00f768" points="2761.23,-944.122 2750.32,-942.978 2756.48,-945.687 2751.73,-947.252 2751.73,-947.252 2751.73,-947.252 2756.48,-945.687 2753.14,-951.526 2761.23,-944.122 2761.23,-944.122"/>
<polygon fill="#00f768" stroke="#00f768" points="2610.07,-173.379 2600.25,-168.5 2605.07,-173.187 2600.08,-172.996 2600.08,-172.996 2600.08,-172.996 2605.07,-173.187 2599.91,-177.493 2610.07,-173.379 2610.07,-173.379"/>
<text text-anchor="middle" x="3206.5" y="-736.3" font-family="Times,serif" font-size="14.00">game_name</text>
</g>
<!-- ListLink -->
<g id="node51" class="node"><title>ListLink</title>
<ellipse fill="none" stroke="black" cx="2906" cy="-495" rx="40.4202" ry="18"/>
<text text-anchor="middle" x="2906" y="-491.3" font-family="Times,serif" font-size="14.00">ListLink</text>
</g>
<!-- List&#45;&gt;ListLink -->
<g id="edge66" class="edge"><title>List&#45;&gt;ListLink</title>
<path fill="none" stroke="#3bbe0d" d="M2729.51,-919.86C2769.37,-870.357 2827.05,-791.606 2860,-714 2887.68,-648.822 2899.29,-565.384 2903.67,-523.131"/>
<ellipse fill="none" stroke="#3bbe0d" cx="2726.77" cy="-923.241" rx="4.00002" ry="4.00002"/>
<polygon fill="#3bbe0d" stroke="#3bbe0d" points="2903.68,-523.025 2909.13,-513.51 2904.16,-518.049 2904.65,-513.072 2904.65,-513.072 2904.65,-513.072 2904.16,-518.049 2900.17,-512.635 2903.68,-523.025 2903.68,-523.025"/>
</g>
<!-- Ability -->
<g id="node14" class="node"><title>Ability</title>
<polygon fill="none" stroke="black" points="3130.5,-949 3130.5,-995 3185.5,-995 3185.5,-949 3130.5,-949"/>
<text text-anchor="middle" x="3158" y="-979.8" font-family="Times,serif" font-size="14.00">Ability</text>
<polyline fill="none" stroke="black" points="3130.5,-972 3185.5,-972 "/>
<text text-anchor="middle" x="3158" y="-956.8" font-family="Times,serif" font-size="14.00"> </text>
</g>
<!-- ExternalLink&#45;&gt;ListItem -->
<g id="edge88" class="edge"><title>ExternalLink&#45;&gt;ListItem</title>
<path fill="none" stroke="#627c41" d="M2537.58,-759.159C2545.08,-744.346 2552.9,-728.685 2560,-714 2586.91,-658.355 2616.23,-593.944 2636.13,-549.643"/>
<ellipse fill="none" stroke="#627c41" cx="2535.73" cy="-762.789" rx="4.00002" ry="4.00002"/>
<polygon fill="#627c41" stroke="#627c41" points="2636.13,-549.63 2644.33,-542.346 2638.18,-545.067 2640.22,-540.505 2640.22,-540.505 2640.22,-540.505 2638.18,-545.067 2636.12,-538.664 2636.13,-549.63 2636.13,-549.63"/>
</g>
<!-- ExternalLink&#45;&gt;Progress -->
<g id="edge92" class="edge"><title>ExternalLink&#45;&gt;Progress</title>
<path fill="none" stroke="#dcab11" d="M2429.12,-824.897C2109.92,-819.85 857.815,-797.071 689,-748 688.546,-747.868 630.336,-714.333 630,-714 476.051,-561.125 369.584,-318.661 329.576,-217.607"/>
<ellipse fill="none" stroke="#dcab11" cx="2433.39" cy="-824.964" rx="4" ry="4"/>
<polygon fill="#dcab11" stroke="#dcab11" points="329.568,-217.584 330.101,-206.632 327.74,-212.93 325.913,-208.276 325.913,-208.276 325.913,-208.276 327.74,-212.93 321.724,-209.921 329.568,-217.584 329.568,-217.584"/>
</g>
<!-- ExternalLink&#45;&gt;User -->
<g id="edge94" class="edge"><title>ExternalLink&#45;&gt;User</title>
<path fill="none" stroke="#33cd1d" d="M2427.02,-825.771C2038.63,-824.306 289.801,-814.053 197,-748 186.12,-740.256 176.46,-731.114 167.883,-720.982"/>
<polygon fill="#33cd1d" stroke="#33cd1d" points="2427.3,-825.772 2437.28,-830.309 2432.3,-825.79 2437.3,-825.809 2437.3,-825.809 2437.3,-825.809 2432.3,-825.79 2437.31,-821.309 2427.3,-825.772 2427.3,-825.772"/>
<polygon fill="#33cd1d" stroke="#33cd1d" points="167.782,-720.856 165.047,-710.237 164.658,-716.952 161.533,-713.048 161.533,-713.048 161.533,-713.048 164.658,-716.952 158.02,-715.86 167.782,-720.856 167.782,-720.856"/>
</g>
<!-- ExternalLink&#45;&gt;ActsAsTaggableOn::Tagging -->
<g id="edge96" class="edge"><title>ExternalLink&#45;&gt;ActsAsTaggableOn::Tagging</title>
<path fill="none" stroke="#548e28" d="M2429.27,-824.992C2114.28,-820.383 890.155,-799.3 726,-748 698.93,-739.54 686.622,-738.301 672,-714 658.446,-691.473 621.05,-262.096 638,-242 675.075,-198.044 823.337,-181.3 932.111,-174.922"/>
<ellipse fill="none" stroke="#548e28" cx="2433.43" cy="-825.052" rx="4" ry="4"/>
<polygon fill="#548e28" stroke="#548e28" points="932.194,-174.917 942.431,-178.847 937.186,-174.636 942.178,-174.355 942.178,-174.355 942.178,-174.355 937.186,-174.636 941.925,-169.862 932.194,-174.917 932.194,-174.917"/>
<text text-anchor="middle" x="695" y="-491.3" font-family="Times,serif" font-size="14.00">taggings</text>
</g>
<!-- ExternalLink&#45;&gt;ActsAsTaggableOn::Tagging -->
<g id="edge100" class="edge"><title>ExternalLink&#45;&gt;ActsAsTaggableOn::Tagging</title>
<path fill="none" stroke="#749ede" d="M2429.12,-823.521C2154.64,-813.855 1203.11,-776.132 1083,-714 857.931,-597.574 921.817,-426.566 718,-276 701.336,-263.69 686.478,-275.248 675,-258 671.06,-252.08 670.459,-247.473 675,-242 707.77,-202.502 837.479,-184.839 935.893,-177.03"/>
<ellipse fill="none" stroke="#749ede" cx="2433.44" cy="-823.672" rx="4" ry="4"/>
<polygon fill="#749ede" stroke="#749ede" points="935.946,-177.026 946.261,-180.746 940.931,-176.642 945.917,-176.259 945.917,-176.259 945.917,-176.259 940.931,-176.642 945.572,-171.773 935.946,-177.026 935.946,-177.026"/>
<text text-anchor="middle" x="1118" y="-491.3" font-family="Times,serif" font-size="14.00">tag_taggings</text>
</g>
<!-- ExternalLink&#45;&gt;ActsAsTaggableOn::Tag -->
<g id="edge98" class="edge"><title>ExternalLink&#45;&gt;ActsAsTaggableOn::Tag</title>
<path fill="none" stroke="#7f2b02" d="M2503,-756.073C2503,-613.24 2503,-293.439 2503,-198.239"/>
<polygon fill="#7f2b02" stroke="#7f2b02" points="2503,-756.428 2498.5,-766.428 2503,-761.428 2503,-766.428 2503,-766.428 2503,-766.428 2503,-761.428 2507.5,-766.428 2503,-756.428 2503,-756.428"/>
<polygon fill="#7f2b02" stroke="#7f2b02" points="2503,-198.012 2507.5,-188.012 2503,-193.012 2503,-188.012 2503,-188.012 2503,-188.012 2503,-193.012 2498.5,-188.012 2503,-198.012 2503,-198.012"/>
<text text-anchor="middle" x="2529.5" y="-491.3" font-family="Times,serif" font-size="14.00">base_tags</text>
</g>
<!-- ExternalLink&#45;&gt;ActsAsTaggableOn::Tag -->
<g id="edge102" class="edge"><title>ExternalLink&#45;&gt;ActsAsTaggableOn::Tag</title>
<path fill="none" stroke="#8e7886" d="M2578.66,-819.301C2647.38,-808.869 2745.63,-782.197 2797,-714 2855.77,-635.976 2767.57,-347.614 2834,-276 2869.38,-237.861 2979.75,-281.588 2946,-242 2903.74,-192.431 2727.62,-177.326 2610.57,-172.81"/>
<polygon fill="#8e7886" stroke="#8e7886" points="2578.64,-819.303 2568.1,-816.27 2573.69,-820.014 2568.74,-820.725 2568.74,-820.725 2568.74,-820.725 2573.69,-820.014 2569.38,-825.179 2578.64,-819.303 2578.64,-819.303"/>
<polygon fill="#8e7886" stroke="#8e7886" points="2610.49,-172.807 2600.66,-167.945 2605.49,-172.625 2600.5,-172.442 2600.5,-172.442 2600.5,-172.442 2605.49,-172.625 2600.33,-176.939 2610.49,-172.807 2610.49,-172.807"/>
<text text-anchor="middle" x="2845" y="-491.3" font-family="Times,serif" font-size="14.00">tags</text>
</g>
<!-- ExternalLink&#45;&gt;ListLink -->
<g id="edge90" class="edge"><title>ExternalLink&#45;&gt;ListLink</title>
<path fill="none" stroke="#86d339" d="M2576.54,-823.821C2647.14,-818.4 2753.86,-801.152 2829,-748 2901.85,-696.467 2908.39,-577.159 2907.37,-523.279"/>
<ellipse fill="none" stroke="#86d339" cx="2572.53" cy="-824.109" rx="4" ry="4"/>
<polygon fill="#86d339" stroke="#86d339" points="2907.37,-523.114 2911.57,-512.987 2907.22,-518.116 2907.07,-513.119 2907.07,-513.119 2907.07,-513.119 2907.22,-518.116 2902.58,-513.251 2907.37,-523.114 2907.37,-523.114"/>
</g>
</g>
</svg>
