<?xml version="1.0" encoding="UTF-8" standalone="no"?>
<!DOCTYPE svg PUBLIC "-//W3C//DTD SVG 1.1//EN"
 "http://www.w3.org/Graphics/SVG/1.1/DTD/svg11.dtd">
<!-- Generated by graphviz version 2.28.0 (20111211.2114)
 -->
<!-- Title: models_diagram Pages: 1 -->
<svg width="3040pt" height="410pt"
 viewBox="0.00 0.00 3040.00 410.00" xmlns="http://www.w3.org/2000/svg" xmlns:xlink="http://www.w3.org/1999/xlink">
<g id="graph1" class="graph" transform="scale(1 1) rotate(0) translate(4 406)">
<title>models_diagram</title>
<polygon fill="white" stroke="white" points="-4,5 -4,-406 3037,-406 3037,5 -4,5"/>
<!-- _diagram_info -->
<g id="node1" class="node"><title>_diagram_info</title>
<text text-anchor="start" x="2181" y="-387.6" font-family="Times,serif" font-size="13.00">Models diagram</text>
<text text-anchor="start" x="2181" y="-373.6" font-family="Times,serif" font-size="13.00">Date: Mar 31 2012 &#45; 12:57</text>
<text text-anchor="start" x="2181" y="-359.6" font-family="Times,serif" font-size="13.00">Migration version: 20120331163623</text>
<text text-anchor="start" x="2181" y="-345.6" font-family="Times,serif" font-size="13.00">Generated by RailRoady 1.0.7</text>
<text text-anchor="start" x="2181" y="-331.6" font-family="Times,serif" font-size="13.00">http://railroady.prestonlee.com</text>
</g>
<!-- TagIcon -->
<g id="node2" class="node"><title>TagIcon</title>
<ellipse fill="none" stroke="black" cx="2445" cy="-363" rx="39.9464" ry="18"/>
<text text-anchor="middle" x="2445" y="-359.3" font-family="Times,serif" font-size="14.00">TagIcon</text>
</g>
<!-- ListItem -->
<g id="node3" class="node"><title>ListItem</title>
<ellipse fill="none" stroke="black" cx="2510" cy="-180" rx="40.4202" ry="18"/>
<text text-anchor="middle" x="2510" y="-176.3" font-family="Times,serif" font-size="14.00">ListItem</text>
</g>
<!-- ListItem&#45;&gt;ListItem -->
<g id="edge4" class="edge"><title>ListItem&#45;&gt;ListItem</title>
<path fill="none" stroke="#a63529" d="M2554.25,-187.797C2562.33,-186.81 2568,-184.211 2568,-180 2568,-176.219 2563.43,-173.737 2556.65,-172.556"/>
<ellipse fill="none" stroke="#a63529" cx="2550.24" cy="-188.024" rx="4" ry="4"/>
<polygon fill="#a63529" stroke="#a63529" points="2556.22,-172.523 2546.6,-167.263 2551.24,-172.136 2546.25,-171.75 2546.25,-171.75 2546.25,-171.75 2551.24,-172.136 2545.9,-176.237 2556.22,-172.523 2556.22,-172.523"/>
<text text-anchor="middle" x="2590.5" y="-176.3" font-family="Times,serif" font-size="14.00">children</text>
</g>
<!-- Map -->
<g id="node12" class="node"><title>Map</title>
<ellipse fill="none" stroke="black" cx="2972" cy="-92" rx="26.949" ry="18"/>
<text text-anchor="middle" x="2972" y="-88.3" font-family="Times,serif" font-size="14.00">Map</text>
</g>
<!-- ListItem&#45;&gt;Map -->
<g id="edge2" class="edge"><title>ListItem&#45;&gt;Map</title>
<path fill="none" stroke="#6fdf86" d="M2555.8,-171.942C2577.63,-168.695 2604.14,-164.924 2628,-162 2706.92,-152.329 2728.06,-159.753 2806,-144 2854.08,-134.282 2908.1,-116.314 2941.09,-104.51"/>
<ellipse fill="none" stroke="#6fdf86" cx="2551.63" cy="-172.565" rx="4.00001" ry="4.00001"/>
<ellipse fill="#6fdf86" stroke="#6fdf86" cx="2945.24" cy="-103.009" rx="4.00001" ry="4.00001"/>
</g>
<!-- ActsAsTaggableOn::Tagging -->
<g id="node19" class="node"><title>ActsAsTaggableOn::Tagging</title>
<ellipse fill="none" stroke="black" cx="916" cy="-92" rx="114.085" ry="18"/>
<text text-anchor="middle" x="916" y="-88.3" font-family="Times,serif" font-size="14.00">ActsAsTaggableOn::Tagging</text>
</g>
<!-- ListItem&#45;&gt;ActsAsTaggableOn::Tagging -->
<g id="edge6" class="edge"><title>ListItem&#45;&gt;ActsAsTaggableOn::Tagging</title>
<path fill="none" stroke="#9250b5" d="M2467.06,-169.067C2453.09,-166.249 2437.46,-163.533 2423,-162 2314.37,-150.481 1543.93,-177.642 1440,-144 1428.15,-140.165 1428.74,-132.138 1417,-128 1349.94,-104.372 1165,-96.6444 1039.59,-94.1474"/>
<ellipse fill="none" stroke="#9250b5" cx="2471.16" cy="-169.917" rx="4.00001" ry="4.00001"/>
<polygon fill="#9250b5" stroke="#9250b5" points="1039.53,-94.1464 1029.62,-89.4566 1034.53,-94.0511 1029.53,-93.9558 1029.53,-93.9558 1029.53,-93.9558 1034.53,-94.0511 1029.45,-98.455 1039.53,-94.1464 1039.53,-94.1464"/>
<text text-anchor="middle" x="1463" y="-132.3" font-family="Times,serif" font-size="14.00">taggings</text>
</g>
<!-- ListItem&#45;&gt;ActsAsTaggableOn::Tagging -->
<g id="edge10" class="edge"><title>ListItem&#45;&gt;ActsAsTaggableOn::Tagging</title>
<path fill="none" stroke="#d34f7e" d="M2467.06,-169.079C2453.09,-166.262 2437.46,-163.543 2423,-162 2322,-151.22 1605.62,-175.349 1509,-144 1497.16,-140.157 1497.76,-132.089 1486,-128 1406.66,-100.421 1182.66,-94.0164 1040.24,-92.8389"/>
<ellipse fill="none" stroke="#d34f7e" cx="2471.16" cy="-169.928" rx="4.00001" ry="4.00001"/>
<polygon fill="#d34f7e" stroke="#d34f7e" points="1040.13,-92.8382 1030.16,-88.263 1035.13,-92.8005 1030.13,-92.7629 1030.13,-92.7629 1030.13,-92.7629 1035.13,-92.8005 1030.09,-97.2628 1040.13,-92.8382 1040.13,-92.8382"/>
<text text-anchor="middle" x="1544" y="-132.3" font-family="Times,serif" font-size="14.00">tag_taggings</text>
</g>
<!-- ListItem&#45;&gt;ActsAsTaggableOn::Tagging -->
<g id="edge14" class="edge"><title>ListItem&#45;&gt;ActsAsTaggableOn::Tagging</title>
<path fill="none" stroke="#44ba36" d="M2467.06,-169.097C2453.09,-166.281 2437.45,-163.558 2423,-162 2331.84,-152.172 1683.78,-176.373 1598,-144 1587.67,-140.102 1589.27,-132.057 1579,-128 1530.3,-108.756 1216.66,-99.1966 1038.76,-95.2694"/>
<ellipse fill="none" stroke="#44ba36" cx="2471.16" cy="-169.946" rx="4.00001" ry="4.00001"/>
<polygon fill="#44ba36" stroke="#44ba36" points="1038.55,-95.265 1028.65,-90.5481 1033.55,-95.156 1028.55,-95.047 1028.55,-95.047 1028.55,-95.047 1033.55,-95.156 1028.45,-99.546 1038.55,-95.265 1038.55,-95.265"/>
<text text-anchor="middle" x="1666" y="-132.3" font-family="Times,serif" font-size="14.00">game_category_taggings</text>
</g>
<!-- ListItem&#45;&gt;ActsAsTaggableOn::Tagging -->
<g id="edge18" class="edge"><title>ListItem&#45;&gt;ActsAsTaggableOn::Tagging</title>
<path fill="none" stroke="#1b0fc9" d="M2469.11,-167.16C2447.3,-160.664 2420.07,-152.268 2396,-144 2377.11,-137.51 2373.6,-131.854 2354,-128 2227.23,-103.073 1365.76,-95.5754 1040.23,-93.6171"/>
<ellipse fill="none" stroke="#1b0fc9" cx="2473.05" cy="-168.327" rx="4.00001" ry="4.00001"/>
<polygon fill="#1b0fc9" stroke="#1b0fc9" points="1039.81,-93.6148 1029.84,-89.0554 1034.81,-93.585 1029.81,-93.5553 1029.81,-93.5553 1029.81,-93.5553 1034.81,-93.585 1029.79,-98.0552 1039.81,-93.6148 1039.81,-93.6148"/>
<text text-anchor="middle" x="2456" y="-132.3" font-family="Times,serif" font-size="14.00">game_name_taggings</text>
</g>
<!-- ActsAsTaggableOn::Tag -->
<g id="node21" class="node"><title>ActsAsTaggableOn::Tag</title>
<ellipse fill="none" stroke="black" cx="2366" cy="-92" rx="98.1881" ry="18"/>
<text text-anchor="middle" x="2366" y="-88.3" font-family="Times,serif" font-size="14.00">ActsAsTaggableOn::Tag</text>
</g>
<!-- ListItem&#45;&gt;ActsAsTaggableOn::Tag -->
<g id="edge8" class="edge"><title>ListItem&#45;&gt;ActsAsTaggableOn::Tag</title>
<path fill="none" stroke="#347c53" d="M2557.92,-171.677C2618.25,-162.344 2714.42,-147.051 2717,-144 2721.59,-138.569 2721.77,-133.272 2717,-128 2700.68,-109.967 2569.42,-100.837 2472.18,-96.504"/>
<polygon fill="#347c53" stroke="#347c53" points="2557.71,-171.708 2547.14,-168.786 2552.77,-172.471 2547.83,-173.233 2547.83,-173.233 2547.83,-173.233 2552.77,-172.471 2548.52,-177.68 2557.71,-171.708 2557.71,-171.708"/>
<polygon fill="#347c53" stroke="#347c53" points="2471.98,-96.4955 2462.18,-91.5661 2466.98,-96.2787 2461.99,-96.0619 2461.99,-96.0619 2461.99,-96.0619 2466.98,-96.2787 2461.79,-100.558 2471.98,-96.4955 2471.98,-96.4955"/>
<text text-anchor="middle" x="2746.5" y="-132.3" font-family="Times,serif" font-size="14.00">base_tags</text>
</g>
<!-- ListItem&#45;&gt;ActsAsTaggableOn::Tag -->
<g id="edge12" class="edge"><title>ListItem&#45;&gt;ActsAsTaggableOn::Tag</title>
<path fill="none" stroke="#081216" d="M2557.86,-171.851C2579.3,-168.715 2604.9,-165.059 2628,-162 2661.06,-157.622 2754.88,-168.957 2777,-144 2781.72,-138.679 2781.81,-133.237 2777,-128 2756.81,-106.017 2588.6,-97.8226 2473.74,-94.7805"/>
<polygon fill="#081216" stroke="#081216" points="2557.59,-171.891 2547.05,-168.892 2552.65,-172.618 2547.7,-173.345 2547.7,-173.345 2547.7,-173.345 2552.65,-172.618 2548.35,-177.797 2557.59,-171.891 2557.59,-171.891"/>
<polygon fill="#081216" stroke="#081216" points="2473.48,-94.7742 2463.6,-90.0204 2468.48,-94.6466 2463.49,-94.5189 2463.49,-94.5189 2463.49,-94.5189 2468.48,-94.6466 2463.37,-99.0175 2473.48,-94.7742 2473.48,-94.7742"/>
<text text-anchor="middle" x="2791" y="-132.3" font-family="Times,serif" font-size="14.00">tags</text>
</g>
<!-- ListItem&#45;&gt;ActsAsTaggableOn::Tag -->
<g id="edge16" class="edge"><title>ListItem&#45;&gt;ActsAsTaggableOn::Tag</title>
<path fill="none" stroke="#4faa50" d="M2523.05,-152.531C2525.34,-143.958 2525.5,-134.893 2520,-128 2511.36,-117.17 2485.53,-109.436 2457.43,-104.041"/>
<polygon fill="#4faa50" stroke="#4faa50" points="2522.95,-152.796 2515.34,-160.691 2521.27,-157.502 2519.58,-162.209 2519.58,-162.209 2519.58,-162.209 2521.27,-157.502 2523.81,-163.728 2522.95,-152.796 2522.95,-152.796"/>
<polygon fill="#4faa50" stroke="#4faa50" points="2457.27,-104.011 2448.23,-97.801 2452.35,-103.12 2447.43,-102.229 2447.43,-102.229 2447.43,-102.229 2452.35,-103.12 2446.63,-106.657 2457.27,-104.011 2457.27,-104.011"/>
<text text-anchor="middle" x="2566" y="-132.3" font-family="Times,serif" font-size="14.00">game_category</text>
</g>
<!-- ListItem&#45;&gt;ActsAsTaggableOn::Tag -->
<g id="edge20" class="edge"><title>ListItem&#45;&gt;ActsAsTaggableOn::Tag</title>
<path fill="none" stroke="#a5a7c7" d="M2558.19,-171.504C2593.24,-164.033 2631.43,-150.388 2612,-128 2593.76,-106.985 2531.44,-98.2616 2474.09,-94.7788"/>
<polygon fill="#a5a7c7" stroke="#a5a7c7" points="2557.77,-171.588 2547.08,-169.125 2552.86,-172.564 2547.96,-173.539 2547.96,-173.539 2547.96,-173.539 2552.86,-172.564 2548.84,-177.952 2557.77,-171.588 2557.77,-171.588"/>
<polygon fill="#a5a7c7" stroke="#a5a7c7" points="2473.81,-94.7632 2464.07,-89.7136 2468.82,-94.4849 2463.82,-94.2066 2463.82,-94.2066 2463.82,-94.2066 2468.82,-94.4849 2463.57,-98.6996 2473.81,-94.7632 2473.81,-94.7632"/>
<text text-anchor="middle" x="2650.5" y="-132.3" font-family="Times,serif" font-size="14.00">game_name</text>
</g>
<!-- Progress -->
<g id="node4" class="node"><title>Progress</title>
<ellipse fill="none" stroke="black" cx="252" cy="-92" rx="40.4202" ry="18"/>
<text text-anchor="middle" x="252" y="-88.3" font-family="Times,serif" font-size="14.00">Progress</text>
</g>
<!-- Template -->
<g id="node5" class="node"><title>Template</title>
<ellipse fill="none" stroke="black" cx="1119" cy="-180" rx="44.2946" ry="18"/>
<text text-anchor="middle" x="1119" y="-176.3" font-family="Times,serif" font-size="14.00">Template</text>
</g>
<!-- Template&#45;&gt;ActsAsTaggableOn::Tagging -->
<g id="edge22" class="edge"><title>Template&#45;&gt;ActsAsTaggableOn::Tagging</title>
<path fill="none" stroke="#4fafb0" d="M1067.12,-175.941C992.5,-171.003 862.213,-160.167 848,-144 837.9,-132.512 847.128,-121.966 861.687,-113.482"/>
<ellipse fill="none" stroke="#4fafb0" cx="1071.5" cy="-176.225" rx="4" ry="4"/>
<polygon fill="#4fafb0" stroke="#4fafb0" points="861.908,-113.367 872.855,-112.722 866.339,-111.05 870.77,-108.734 870.77,-108.734 870.77,-108.734 866.339,-111.05 868.685,-104.746 861.908,-113.367 861.908,-113.367"/>
<text text-anchor="middle" x="871" y="-132.3" font-family="Times,serif" font-size="14.00">taggings</text>
</g>
<!-- Template&#45;&gt;ActsAsTaggableOn::Tagging -->
<g id="edge26" class="edge"><title>Template&#45;&gt;ActsAsTaggableOn::Tagging</title>
<path fill="none" stroke="#4355d6" d="M1066.93,-177.272C1013.64,-174.288 936.02,-166.155 917,-144 911.422,-137.503 909.915,-128.639 910.2,-120.122"/>
<ellipse fill="none" stroke="#4355d6" cx="1070.94" cy="-177.483" rx="4" ry="4"/>
<polygon fill="#4355d6" stroke="#4355d6" points="910.209,-120.031 915.756,-110.571 910.746,-115.06 911.282,-110.089 911.282,-110.089 911.282,-110.089 910.746,-115.06 906.808,-109.606 910.209,-120.031 910.209,-120.031"/>
<text text-anchor="middle" x="952" y="-132.3" font-family="Times,serif" font-size="14.00">tag_taggings</text>
</g>
<!-- Template&#45;&gt;ActsAsTaggableOn::Tagging -->
<g id="edge30" class="edge"><title>Template&#45;&gt;ActsAsTaggableOn::Tagging</title>
<path fill="none" stroke="#4eca23" d="M1066.82,-177.73C928.839,-174.119 563.705,-162.82 546,-144 509.671,-105.384 670.73,-95.2924 791.825,-93.0402"/>
<ellipse fill="none" stroke="#4eca23" cx="1071.18" cy="-177.843" rx="4" ry="4"/>
<polygon fill="#4eca23" stroke="#4eca23" points="791.939,-93.0384 802.014,-97.3678 796.938,-92.9534 801.938,-92.8684 801.938,-92.8684 801.938,-92.8684 796.938,-92.9534 801.861,-88.3691 791.939,-93.0384 791.939,-93.0384"/>
<text text-anchor="middle" x="614" y="-132.3" font-family="Times,serif" font-size="14.00">game_category_taggings</text>
</g>
<!-- Template&#45;&gt;ActsAsTaggableOn::Tagging -->
<g id="edge34" class="edge"><title>Template&#45;&gt;ActsAsTaggableOn::Tagging</title>
<path fill="none" stroke="#482ae1" d="M1066.84,-178.265C963.998,-176.271 742.981,-169.085 720,-144 715.196,-138.757 715.435,-133.452 720,-128 731.434,-114.343 765.428,-106.009 801.964,-100.927"/>
<ellipse fill="none" stroke="#482ae1" cx="1070.93" cy="-178.341" rx="4" ry="4"/>
<polygon fill="#482ae1" stroke="#482ae1" points="802.404,-100.869 812.901,-104.04 807.362,-100.223 812.32,-99.5775 812.32,-99.5775 812.32,-99.5775 807.362,-100.223 811.739,-95.1152 802.404,-100.869 802.404,-100.869"/>
<text text-anchor="middle" x="780" y="-132.3" font-family="Times,serif" font-size="14.00">game_name_taggings</text>
</g>
<!-- Template&#45;&gt;ActsAsTaggableOn::Tag -->
<g id="edge24" class="edge"><title>Template&#45;&gt;ActsAsTaggableOn::Tag</title>
<path fill="none" stroke="#5d1d61" d="M1172.38,-175.233C1224.54,-171.611 1306.21,-166.097 1377,-162 1457.19,-157.359 1661.98,-169.937 1738,-144 1749.79,-139.979 1749.23,-132.068 1761,-128 1849.7,-97.3412 2108.59,-92.4159 2257.38,-92.247"/>
<polygon fill="#5d1d61" stroke="#5d1d61" points="1172.33,-175.236 1162.04,-171.442 1167.34,-175.584 1162.35,-175.931 1162.35,-175.931 1162.35,-175.931 1167.34,-175.584 1162.67,-180.42 1172.33,-175.236 1172.33,-175.236"/>
<polygon fill="#5d1d61" stroke="#5d1d61" points="2257.46,-92.2471 2267.46,-96.7427 2262.46,-92.2449 2267.46,-92.2427 2267.46,-92.2427 2267.46,-92.2427 2262.46,-92.2449 2267.46,-87.7427 2257.46,-92.2471 2257.46,-92.2471"/>
<text text-anchor="middle" x="1787.5" y="-132.3" font-family="Times,serif" font-size="14.00">base_tags</text>
</g>
<!-- Template&#45;&gt;ActsAsTaggableOn::Tag -->
<g id="edge28" class="edge"><title>Template&#45;&gt;ActsAsTaggableOn::Tag</title>
<path fill="none" stroke="#dfeeb4" d="M1171.9,-175.023C1224.04,-171.219 1305.97,-165.552 1377,-162 1435.52,-159.074 1848.4,-162.484 1904,-144 1915.82,-140.071 1915.28,-132.196 1927,-128 1985.81,-106.952 2148.39,-98.5141 2258.32,-95.1636"/>
<polygon fill="#dfeeb4" stroke="#dfeeb4" points="1171.86,-175.026 1161.56,-171.269 1166.87,-175.391 1161.89,-175.757 1161.89,-175.757 1161.89,-175.757 1166.87,-175.391 1162.22,-180.245 1171.86,-175.026 1171.86,-175.026"/>
<polygon fill="#dfeeb4" stroke="#dfeeb4" points="2258.46,-95.1595 2268.59,-99.3625 2263.46,-95.012 2268.46,-94.8645 2268.46,-94.8645 2268.46,-94.8645 2263.46,-95.012 2268.32,-90.3664 2258.46,-95.1595 2258.46,-95.1595"/>
<text text-anchor="middle" x="1938" y="-132.3" font-family="Times,serif" font-size="14.00">tags</text>
</g>
<!-- Template&#45;&gt;ActsAsTaggableOn::Tag -->
<g id="edge32" class="edge"><title>Template&#45;&gt;ActsAsTaggableOn::Tag</title>
<path fill="none" stroke="#349475" d="M1171.9,-174.981C1224.03,-171.147 1305.96,-165.457 1377,-162 1440.51,-158.909 1889.62,-166.737 1949,-144 1959.31,-140.052 1957.81,-132.236 1968,-128 2018.7,-106.932 2158.9,-98.5365 2258.52,-95.1967"/>
<polygon fill="#349475" stroke="#349475" points="1171.86,-174.984 1161.55,-171.234 1166.87,-175.353 1161.89,-175.722 1161.89,-175.722 1161.89,-175.722 1166.87,-175.353 1162.22,-180.21 1171.86,-174.984 1171.86,-174.984"/>
<polygon fill="#349475" stroke="#349475" points="2258.64,-95.1929 2268.78,-99.3678 2263.64,-95.0315 2268.63,-94.8701 2268.63,-94.8701 2268.63,-94.8701 2263.64,-95.0315 2268.49,-90.3725 2258.64,-95.1929 2258.64,-95.1929"/>
<text text-anchor="middle" x="2010" y="-132.3" font-family="Times,serif" font-size="14.00">game_category</text>
</g>
<!-- Template&#45;&gt;ActsAsTaggableOn::Tag -->
<g id="edge36" class="edge"><title>Template&#45;&gt;ActsAsTaggableOn::Tag</title>
<path fill="none" stroke="#f2d885" d="M1172.37,-175.098C1224.53,-171.376 1306.19,-165.791 1377,-162 1425.53,-159.402 1768.7,-161.597 1814,-144 1824.29,-140.002 1822.76,-132.123 1833,-128 1907.3,-98.0866 2124.03,-92.6069 2257.13,-92.2064"/>
<polygon fill="#f2d885" stroke="#f2d885" points="1172.32,-175.102 1162.03,-171.328 1167.33,-175.459 1162.35,-175.817 1162.35,-175.817 1162.35,-175.817 1167.33,-175.459 1162.67,-180.305 1172.32,-175.102 1172.32,-175.102"/>
<polygon fill="#f2d885" stroke="#f2d885" points="2257.36,-92.206 2267.37,-96.6851 2262.36,-92.1956 2267.36,-92.1851 2267.36,-92.1851 2267.36,-92.1851 2262.36,-92.1956 2267.35,-87.6851 2257.36,-92.206 2257.36,-92.206"/>
<text text-anchor="middle" x="1866.5" y="-132.3" font-family="Times,serif" font-size="14.00">game_name</text>
</g>
<!-- User -->
<g id="node6" class="node"><title>User</title>
<ellipse fill="none" stroke="black" cx="27" cy="-180" rx="26.949" ry="18"/>
<text text-anchor="middle" x="27" y="-176.3" font-family="Times,serif" font-size="14.00">User</text>
</g>
<!-- User&#45;&gt;Progress -->
<g id="edge38" class="edge"><title>User&#45;&gt;Progress</title>
<path fill="none" stroke="#bc2c04" d="M40.3512,-155.848C47.3273,-145.773 56.7633,-134.748 68,-128 108.56,-103.642 162.452,-95.666 201.419,-93.3187"/>
<ellipse fill="none" stroke="#bc2c04" cx="38.1147" cy="-159.262" rx="4.00002" ry="4.00002"/>
<polygon fill="#bc2c04" stroke="#bc2c04" points="201.5,-93.3147 211.712,-97.311 206.494,-93.0657 211.488,-92.8166 211.488,-92.8166 211.488,-92.8166 206.494,-93.0657 211.264,-88.3222 201.5,-93.3147 201.5,-93.3147"/>
</g>
<!-- List -->
<g id="node13" class="node"><title>List</title>
<ellipse fill="none" stroke="black" cx="2530" cy="-363" rx="27" ry="18"/>
<text text-anchor="middle" x="2530" y="-359.3" font-family="Times,serif" font-size="14.00">List</text>
</g>
<!-- User&#45;&gt;List -->
<g id="edge40" class="edge"><title>User&#45;&gt;List</title>
<path fill="none" stroke="#49d010" d="M27.2112,-208.5C29.101,-238.139 37.2113,-284.012 68,-306 122.841,-345.166 2432.19,-297.142 2494,-324 2501.22,-327.137 2507.68,-332.502 2513.06,-338.229"/>
<polygon fill="#49d010" stroke="#49d010" points="27.206,-208.38 31.2615,-198.191 26.9859,-203.384 26.7659,-198.389 26.7659,-198.389 26.7659,-198.389 26.9859,-203.384 22.2703,-198.587 27.206,-208.38 27.206,-208.38"/>
<polygon fill="#49d010" stroke="#49d010" points="2513.24,-338.45 2516.27,-348.991 2516.47,-342.267 2519.7,-346.085 2519.7,-346.085 2519.7,-346.085 2516.47,-342.267 2523.14,-343.179 2513.24,-338.45 2513.24,-338.45"/>
</g>
<!-- Home -->
<g id="node7" class="node"><title>Home</title>
<ellipse fill="none" stroke="black" cx="2670" cy="-363" rx="32.2457" ry="18"/>
<text text-anchor="middle" x="2670" y="-359.3" font-family="Times,serif" font-size="14.00">Home</text>
</g>
<!-- SocialLink -->
<g id="node8" class="node"><title>SocialLink</title>
<ellipse fill="none" stroke="black" cx="1435" cy="-180" rx="49.0941" ry="18"/>
<text text-anchor="middle" x="1435" y="-176.3" font-family="Times,serif" font-size="14.00">SocialLink</text>
</g>
<!-- SocialLink&#45;&gt;ActsAsTaggableOn::Tagging -->
<g id="edge42" class="edge"><title>SocialLink&#45;&gt;ActsAsTaggableOn::Tagging</title>
<path fill="none" stroke="#c0e9e7" d="M1378.88,-175.155C1267.36,-167.408 1027.08,-150.137 1010,-144 998.281,-139.789 997.726,-134.326 987,-128 978.654,-123.077 969.519,-118.211 960.664,-113.744"/>
<ellipse fill="none" stroke="#c0e9e7" cx="1383.01" cy="-175.442" rx="4" ry="4"/>
<polygon fill="#c0e9e7" stroke="#c0e9e7" points="960.543,-113.684 953.578,-105.215 956.062,-111.466 951.581,-109.248 951.581,-109.248 951.581,-109.248 956.062,-111.466 949.585,-113.28 960.543,-113.684 960.543,-113.684"/>
<text text-anchor="middle" x="1033" y="-132.3" font-family="Times,serif" font-size="14.00">taggings</text>
</g>
<!-- SocialLink&#45;&gt;ActsAsTaggableOn::Tagging -->
<g id="edge46" class="edge"><title>SocialLink&#45;&gt;ActsAsTaggableOn::Tagging</title>
<path fill="none" stroke="#1e6335" d="M1378.15,-176.897C1291.91,-173.121 1132.42,-163.676 1079,-144 1067.32,-139.696 1067.34,-133.15 1056,-128 1038.13,-119.882 1018.09,-113.455 998.871,-108.444"/>
<ellipse fill="none" stroke="#1e6335" cx="1382.26" cy="-177.073" rx="4" ry="4"/>
<polygon fill="#1e6335" stroke="#1e6335" points="998.616,-108.38 990.008,-101.586 993.765,-107.166 988.915,-105.951 988.915,-105.951 988.915,-105.951 993.765,-107.166 987.822,-110.316 998.616,-108.38 998.616,-108.38"/>
<text text-anchor="middle" x="1114" y="-132.3" font-family="Times,serif" font-size="14.00">tag_taggings</text>
</g>
<!-- SocialLink&#45;&gt;ActsAsTaggableOn::Tagging -->
<g id="edge50" class="edge"><title>SocialLink&#45;&gt;ActsAsTaggableOn::Tagging</title>
<path fill="none" stroke="#f23298" d="M1377.62,-179.078C1323,-177.388 1239.4,-170.145 1172,-144 1160.39,-139.496 1160.57,-132.601 1149,-128 1112.45,-113.467 1070.48,-104.914 1032.33,-99.8982"/>
<ellipse fill="none" stroke="#f23298" cx="1381.79" cy="-179.19" rx="4" ry="4"/>
<polygon fill="#f23298" stroke="#f23298" points="1032.12,-99.8724 1022.75,-94.1711 1027.16,-99.2545 1022.2,-98.6367 1022.2,-98.6367 1022.2,-98.6367 1027.16,-99.2545 1021.64,-103.102 1032.12,-99.8724 1032.12,-99.8724"/>
<text text-anchor="middle" x="1213.5" y="-132.3" font-family="Times,serif" font-size="14.00">name_taggings</text>
</g>
<!-- SocialLink&#45;&gt;ActsAsTaggableOn::Tag -->
<g id="edge44" class="edge"><title>SocialLink&#45;&gt;ActsAsTaggableOn::Tag</title>
<path fill="none" stroke="#7a9bd0" d="M1493.43,-175.797C1558.12,-172.28 1665.5,-166.531 1758,-162 1802.1,-159.84 2113.87,-160.075 2155,-144 2165.28,-139.981 2164.01,-132.703 2174,-128 2202.63,-114.519 2235.92,-106.216 2266.67,-101.107"/>
<polygon fill="#7a9bd0" stroke="#7a9bd0" points="1493.41,-175.798 1483.18,-171.848 1488.42,-176.07 1483.42,-176.341 1483.42,-176.341 1483.42,-176.341 1488.42,-176.07 1483.67,-180.835 1493.41,-175.798 1493.41,-175.798"/>
<polygon fill="#7a9bd0" stroke="#7a9bd0" points="2266.67,-101.106 2277.25,-104.004 2271.61,-100.332 2276.55,-99.5578 2276.55,-99.5578 2276.55,-99.5578 2271.61,-100.332 2275.85,-95.1121 2266.67,-101.106 2266.67,-101.106"/>
<text text-anchor="middle" x="2200.5" y="-132.3" font-family="Times,serif" font-size="14.00">base_tags</text>
</g>
<!-- SocialLink&#45;&gt;ActsAsTaggableOn::Tag -->
<g id="edge48" class="edge"><title>SocialLink&#45;&gt;ActsAsTaggableOn::Tag</title>
<path fill="none" stroke="#ca7531" d="M1493.56,-175.908C1647,-167.78 2049.39,-146.278 2056,-144 2067.77,-139.941 2067.37,-132.44 2079,-128 2112.3,-115.291 2196.98,-105.912 2265.78,-100.079"/>
<polygon fill="#ca7531" stroke="#ca7531" points="1493.37,-175.918 1483.15,-171.953 1488.38,-176.182 1483.39,-176.447 1483.39,-176.447 1483.39,-176.447 1488.38,-176.182 1483.62,-180.94 1493.37,-175.918 1493.37,-175.918"/>
<polygon fill="#ca7531" stroke="#ca7531" points="2265.84,-100.074 2276.18,-103.728 2270.83,-99.6588 2275.81,-99.244 2275.81,-99.244 2275.81,-99.244 2270.83,-99.6588 2275.43,-94.7595 2265.84,-100.074 2265.84,-100.074"/>
<text text-anchor="middle" x="2090" y="-132.3" font-family="Times,serif" font-size="14.00">tags</text>
</g>
<!-- SocialLink&#45;&gt;ActsAsTaggableOn::Tag -->
<g id="edge52" class="edge"><title>SocialLink&#45;&gt;ActsAsTaggableOn::Tag</title>
<path fill="none" stroke="#acf7c7" d="M1493.44,-175.922C1558.13,-172.514 1665.51,-166.861 1758,-162 1796.11,-159.997 2065.5,-158.019 2101,-144 2111.27,-139.945 2109.92,-132.508 2120,-128 2163.02,-108.759 2214.11,-99.5653 2258.56,-95.3484"/>
<polygon fill="#acf7c7" stroke="#acf7c7" points="1493.41,-175.923 1483.19,-171.955 1488.42,-176.186 1483.43,-176.449 1483.43,-176.449 1483.43,-176.449 1488.42,-176.186 1483.67,-180.943 1493.41,-175.923 1493.41,-175.923"/>
<polygon fill="#acf7c7" stroke="#acf7c7" points="2258.57,-95.3483 2268.92,-98.9577 2263.55,-94.9116 2268.53,-94.4749 2268.53,-94.4749 2268.53,-94.4749 2263.55,-94.9116 2268.14,-89.9921 2258.57,-95.3483 2258.57,-95.3483"/>
<text text-anchor="middle" x="2135.5" y="-132.3" font-family="Times,serif" font-size="14.00">name</text>
</g>
<!-- ListLinks -->
<g id="node9" class="node"><title>ListLinks</title>
<ellipse fill="none" stroke="black" cx="1811" cy="-180" rx="44.2946" ry="18"/>
<text text-anchor="middle" x="1811" y="-176.3" font-family="Times,serif" font-size="14.00">ListLinks</text>
</g>
<!-- ListLinks&#45;&gt;ActsAsTaggableOn::Tagging -->
<g id="edge54" class="edge"><title>ListLinks&#45;&gt;ActsAsTaggableOn::Tagging</title>
<path fill="none" stroke="#33366a" d="M1759.12,-176.4C1650.61,-170.74 1406.73,-156.784 1371,-144 1359.28,-139.805 1359.72,-132.203 1348,-128 1293.02,-108.284 1145.86,-99.6096 1038.53,-95.8352"/>
<ellipse fill="none" stroke="#33366a" cx="1763.33" cy="-176.618" rx="4" ry="4"/>
<polygon fill="#33366a" stroke="#33366a" points="1038.27,-95.8263 1028.43,-90.9876 1033.27,-95.6556 1028.28,-95.485 1028.28,-95.485 1028.28,-95.485 1033.27,-95.6556 1028.12,-99.9824 1038.27,-95.8263 1038.27,-95.8263"/>
<text text-anchor="middle" x="1394" y="-132.3" font-family="Times,serif" font-size="14.00">taggings</text>
</g>
<!-- ListLinks&#45;&gt;ActsAsTaggableOn::Tagging -->
<g id="edge58" class="edge"><title>ListLinks&#45;&gt;ActsAsTaggableOn::Tagging</title>
<path fill="none" stroke="#5647e9" d="M1759.65,-176.077C1627.5,-168.5 1285.18,-148.499 1274,-144 1263.76,-139.88 1265.16,-132.313 1255,-128 1216.48,-111.651 1117.03,-102.683 1035.74,-97.9316"/>
<ellipse fill="none" stroke="#5647e9" cx="1763.67" cy="-176.308" rx="4" ry="4"/>
<polygon fill="#5647e9" stroke="#5647e9" points="1035.4,-97.9124 1025.68,-92.852 1030.41,-97.6286 1025.42,-97.3448 1025.42,-97.3448 1025.42,-97.3448 1030.41,-97.6286 1025.16,-101.838 1035.4,-97.9124 1035.4,-97.9124"/>
<text text-anchor="middle" x="1309" y="-132.3" font-family="Times,serif" font-size="14.00">tag_taggings</text>
</g>
<!-- ListLinks&#45;&gt;ActsAsTaggableOn::Tag -->
<g id="edge56" class="edge"><title>ListLinks&#45;&gt;ActsAsTaggableOn::Tag</title>
<path fill="none" stroke="#3b1de8" d="M1865.33,-177.964C1963.23,-175.522 2165.16,-167.698 2231,-144 2242.72,-139.783 2242.82,-133.476 2254,-128 2268.55,-120.878 2284.86,-114.804 2300.44,-109.814"/>
<polygon fill="#3b1de8" stroke="#3b1de8" points="1865.06,-177.971 1854.95,-173.711 1860.06,-178.09 1855.06,-178.21 1855.06,-178.21 1855.06,-178.21 1860.06,-178.09 1855.17,-182.709 1865.06,-177.971 1865.06,-177.971"/>
<polygon fill="#3b1de8" stroke="#3b1de8" points="2300.47,-109.804 2311.35,-111.146 2305.24,-108.326 2310.02,-106.847 2310.02,-106.847 2310.02,-106.847 2305.24,-108.326 2308.69,-102.548 2300.47,-109.804 2300.47,-109.804"/>
<text text-anchor="middle" x="2280.5" y="-132.3" font-family="Times,serif" font-size="14.00">base_tags</text>
</g>
<!-- ListLinks&#45;&gt;ActsAsTaggableOn::Tag -->
<g id="edge60" class="edge"><title>ListLinks&#45;&gt;ActsAsTaggableOn::Tag</title>
<path fill="none" stroke="#b7f86c" d="M1865.2,-179.451C1976.81,-179.689 2228.37,-176.471 2307,-144 2314.77,-140.79 2328.89,-128.688 2341.37,-117.078"/>
<polygon fill="#b7f86c" stroke="#b7f86c" points="1865.17,-179.451 1855.19,-174.919 1860.17,-179.435 1855.17,-179.419 1855.17,-179.419 1855.17,-179.419 1860.17,-179.435 1855.16,-183.919 1865.17,-179.451 1865.17,-179.451"/>
<polygon fill="#b7f86c" stroke="#b7f86c" points="2341.59,-116.869 2351.95,-113.266 2345.23,-113.433 2348.86,-109.997 2348.86,-109.997 2348.86,-109.997 2345.23,-113.433 2345.77,-106.728 2341.59,-116.869 2341.59,-116.869"/>
<text text-anchor="middle" x="2339" y="-132.3" font-family="Times,serif" font-size="14.00">tags</text>
</g>
<!-- Account -->
<g id="node10" class="node"><title>Account</title>
<ellipse fill="none" stroke="black" cx="2761" cy="-363" rx="39.9464" ry="18"/>
<text text-anchor="middle" x="2761" y="-359.3" font-family="Times,serif" font-size="14.00">Account</text>
</g>
<!-- Location -->
<g id="node11" class="node"><title>Location</title>
<ellipse fill="none" stroke="black" cx="2972" cy="-18" rx="42.3701" ry="18"/>
<text text-anchor="middle" x="2972" y="-14.3" font-family="Times,serif" font-size="14.00">Location</text>
</g>
<!-- Map&#45;&gt;Location -->
<g id="edge62" class="edge"><title>Map&#45;&gt;Location</title>
<path fill="none" stroke="#4ffb50" d="M2972,-65.7923C2972,-59.5805 2972,-52.8963 2972,-46.5786"/>
<ellipse fill="none" stroke="#4ffb50" cx="2972" cy="-69.937" rx="4" ry="4"/>
<polygon fill="#4ffb50" stroke="#4ffb50" points="2972,-46.4407 2976.5,-36.4406 2972,-41.4407 2972,-36.4407 2972,-36.4407 2972,-36.4407 2972,-41.4407 2967.5,-36.4407 2972,-46.4407 2972,-46.4407"/>
</g>
<!-- List&#45;&gt;ListItem -->
<g id="edge64" class="edge"><title>List&#45;&gt;ListItem</title>
<path fill="none" stroke="#e69047" d="M2527.19,-336.611C2523.46,-302.823 2516.88,-243.303 2513.04,-208.487"/>
<ellipse fill="none" stroke="#e69047" cx="2527.68" cy="-340.996" rx="4" ry="4"/>
<polygon fill="#e69047" stroke="#e69047" points="2512.99,-208.054 2516.36,-197.62 2512.44,-203.084 2511.89,-198.115 2511.89,-198.115 2511.89,-198.115 2512.44,-203.084 2507.42,-198.609 2512.99,-208.054 2512.99,-208.054"/>
</g>
<!-- List&#45;&gt;List -->
<g id="edge70" class="edge"><title>List&#45;&gt;List</title>
<path fill="none" stroke="#844f1e" d="M2560.31,-373.807C2568.64,-373.281 2575,-369.678 2575,-363 2575,-356.867 2569.63,-353.328 2562.3,-352.383"/>
<ellipse fill="none" stroke="#844f1e" cx="2556.22" cy="-373.615" rx="4" ry="4"/>
<polygon fill="#844f1e" stroke="#844f1e" points="2562.23,-352.384 2552.14,-348.075 2557.23,-352.479 2552.23,-352.574 2552.23,-352.574 2552.23,-352.574 2557.23,-352.479 2552.31,-357.073 2562.23,-352.384 2562.23,-352.384"/>
<text text-anchor="middle" x="2597.5" y="-359.3" font-family="Times,serif" font-size="14.00">children</text>
</g>
<!-- ExternalLink -->
<g id="node15" class="node"><title>ExternalLink</title>
<ellipse fill="none" stroke="black" cx="2366" cy="-268" rx="57.2927" ry="18"/>
<text text-anchor="middle" x="2366" y="-264.3" font-family="Times,serif" font-size="14.00">ExternalLink</text>
</g>
<!-- List&#45;&gt;ExternalLink -->
<g id="edge68" class="edge"><title>List&#45;&gt;ExternalLink</title>
<path fill="none" stroke="#a46bca" d="M2510.92,-338.835C2505.8,-333.513 2500.01,-328.192 2494,-324 2469.92,-307.202 2439.9,-293.968 2414.98,-284.695"/>
<polygon fill="#a46bca" stroke="#a46bca" points="2511.16,-339.101 2514.56,-349.529 2514.53,-342.802 2517.89,-346.504 2517.89,-346.504 2517.89,-346.504 2514.53,-342.802 2521.22,-343.479 2511.16,-339.101 2511.16,-339.101"/>
<polygon fill="#a46bca" stroke="#a46bca" points="2414.76,-284.615 2406.89,-276.981 2410.06,-282.914 2405.36,-281.213 2405.36,-281.213 2405.36,-281.213 2410.06,-282.914 2403.82,-285.444 2414.76,-284.615 2414.76,-284.615"/>
</g>
<!-- List&#45;&gt;ActsAsTaggableOn::Tagging -->
<g id="edge72" class="edge"><title>List&#45;&gt;ActsAsTaggableOn::Tagging</title>
<path fill="none" stroke="#961b93" d="M2514.5,-339.804C2508.84,-333.503 2501.87,-327.428 2494,-324 2441.66,-301.214 489.777,-332.086 439,-306 368.348,-269.703 358.216,-173.959 423,-128 452.486,-107.082 656.815,-98.5368 792.998,-95.1397"/>
<ellipse fill="none" stroke="#961b93" cx="2517.15" cy="-343.009" rx="4.00002" ry="4.00002"/>
<polygon fill="#961b93" stroke="#961b93" points="793.093,-95.1374 803.2,-99.3928 798.092,-95.0158 803.09,-94.8942 803.09,-94.8942 803.09,-94.8942 798.092,-95.0158 802.981,-90.3955 793.093,-95.1374 793.093,-95.1374"/>
<text text-anchor="middle" x="405" y="-220.3" font-family="Times,serif" font-size="14.00">taggings</text>
</g>
<!-- List&#45;&gt;ActsAsTaggableOn::Tagging -->
<g id="edge76" class="edge"><title>List&#45;&gt;ActsAsTaggableOn::Tagging</title>
<path fill="none" stroke="#f47cae" d="M2514.42,-339.974C2508.76,-333.682 2501.81,-327.57 2494,-324 2287.23,-229.497 607.099,-396.329 450,-232 435.609,-216.946 431.193,-169.371 490,-128 514.511,-110.756 677.717,-101.338 794.818,-96.7359"/>
<ellipse fill="none" stroke="#f47cae" cx="2517.08" cy="-343.163" rx="4.00002" ry="4.00002"/>
<polygon fill="#f47cae" stroke="#f47cae" points="794.943,-96.7312 805.109,-100.842 799.939,-96.5384 804.935,-96.3457 804.935,-96.3457 804.935,-96.3457 799.939,-96.5384 804.762,-91.849 794.943,-96.7312 794.943,-96.7312"/>
<text text-anchor="middle" x="485" y="-220.3" font-family="Times,serif" font-size="14.00">tag_taggings</text>
</g>
<!-- List&#45;&gt;ActsAsTaggableOn::Tagging -->
<g id="edge80" class="edge"><title>List&#45;&gt;ActsAsTaggableOn::Tagging</title>
<path fill="none" stroke="#0b4cd2" d="M2514.5,-339.8C2508.84,-333.499 2501.88,-327.425 2494,-324 2436.25,-298.888 288.149,-321.05 227,-306 157.129,-288.804 120.491,-293.418 83,-232 59.7189,-193.861 80.4767,-173.269 227,-128 328.841,-96.5357 622.13,-91.9048 791.422,-92.0042"/>
<ellipse fill="none" stroke="#0b4cd2" cx="2517.15" cy="-343.006" rx="4.00002" ry="4.00002"/>
<polygon fill="#0b4cd2" stroke="#0b4cd2" points="791.639,-92.0043 801.634,-96.516 796.639,-92.0102 801.639,-92.016 801.639,-92.016 801.639,-92.016 796.639,-92.0102 801.644,-87.516 791.639,-92.0043 791.639,-92.0043"/>
<text text-anchor="middle" x="151" y="-220.3" font-family="Times,serif" font-size="14.00">game_category_taggings</text>
</g>
<!-- List&#45;&gt;ActsAsTaggableOn::Tagging -->
<g id="edge84" class="edge"><title>List&#45;&gt;ActsAsTaggableOn::Tagging</title>
<path fill="none" stroke="#66eccd" d="M2514.5,-339.804C2508.84,-333.503 2501.87,-327.428 2494,-324 2441.48,-301.138 488.118,-317.479 432,-306 390.572,-297.526 276.612,-263.066 256,-232 205.691,-156.173 66.7458,-233.623 402,-128 472.082,-105.921 663.926,-97.7655 792.372,-94.7562"/>
<ellipse fill="none" stroke="#66eccd" cx="2517.15" cy="-343.009" rx="4.00002" ry="4.00002"/>
<polygon fill="#66eccd" stroke="#66eccd" points="792.667,-94.7496 802.766,-99.0217 797.666,-94.6362 802.664,-94.5229 802.664,-94.5229 802.664,-94.5229 797.666,-94.6362 802.562,-90.024 792.667,-94.7496 792.667,-94.7496"/>
<text text-anchor="middle" x="316" y="-220.3" font-family="Times,serif" font-size="14.00">game_name_taggings</text>
</g>
<!-- List&#45;&gt;ActsAsTaggableOn::Tag -->
<g id="edge74" class="edge"><title>List&#45;&gt;ActsAsTaggableOn::Tag</title>
<path fill="none" stroke="#8d7e4d" d="M2559.97,-346.711C2643.61,-303.125 2870.48,-178.167 2824,-128 2800.72,-102.869 2602.31,-95.7059 2474.39,-93.7126"/>
<polygon fill="#8d7e4d" stroke="#8d7e4d" points="2559.84,-346.778 2548.89,-347.383 2555.4,-349.078 2550.96,-351.379 2550.96,-351.379 2550.96,-351.379 2555.4,-349.078 2553.03,-355.374 2559.84,-346.778 2559.84,-346.778"/>
<polygon fill="#8d7e4d" stroke="#8d7e4d" points="2474.15,-93.7093 2464.22,-89.0623 2469.15,-93.6355 2464.16,-93.5618 2464.16,-93.5618 2464.16,-93.5618 2469.15,-93.6355 2464.09,-98.0613 2474.15,-93.7093 2474.15,-93.7093"/>
<text text-anchor="middle" x="2796.5" y="-220.3" font-family="Times,serif" font-size="14.00">base_tags</text>
</g>
<!-- List&#45;&gt;ActsAsTaggableOn::Tag -->
<g id="edge78" class="edge"><title>List&#45;&gt;ActsAsTaggableOn::Tag</title>
<path fill="none" stroke="#91ab24" d="M2561.94,-349.009C2636.89,-318.39 2818.42,-243.409 2827,-232 2855.03,-194.725 2872.74,-162.169 2841,-128 2816.57,-101.708 2606.84,-94.9796 2474.36,-93.3722"/>
<polygon fill="#91ab24" stroke="#91ab24" points="2561.77,-349.077 2550.81,-348.689 2557.14,-350.966 2552.51,-352.856 2552.51,-352.856 2552.51,-352.856 2557.14,-350.966 2554.21,-357.022 2561.77,-349.077 2561.77,-349.077"/>
<polygon fill="#91ab24" stroke="#91ab24" points="2474.16,-93.3701 2464.22,-88.7571 2469.17,-93.3135 2464.17,-93.2568 2464.17,-93.2568 2464.17,-93.2568 2469.17,-93.3135 2464.11,-97.7565 2474.16,-93.3701 2474.16,-93.3701"/>
<text text-anchor="middle" x="2848" y="-220.3" font-family="Times,serif" font-size="14.00">tags</text>
</g>
<!-- List&#45;&gt;ActsAsTaggableOn::Tag -->
<g id="edge82" class="edge"><title>List&#45;&gt;ActsAsTaggableOn::Tag</title>
<path fill="none" stroke="#c8711b" d="M2562.07,-348.777C2581.31,-341.073 2606.36,-331.442 2629,-324 2735.16,-289.102 2801.04,-324.996 2863,-232 2888.64,-193.519 2894.79,-158.465 2860,-128 2831.68,-103.202 2610.95,-95.9525 2474.3,-93.8473"/>
<polygon fill="#c8711b" stroke="#c8711b" points="2561.85,-348.864 2550.89,-348.435 2557.22,-350.736 2552.58,-352.608 2552.58,-352.608 2552.58,-352.608 2557.22,-350.736 2554.26,-356.781 2561.85,-348.864 2561.85,-348.864"/>
<polygon fill="#c8711b" stroke="#c8711b" points="2474.2,-93.846 2464.27,-89.1992 2469.2,-93.7724 2464.2,-93.6987 2464.2,-93.6987 2464.2,-93.6987 2469.2,-93.7724 2464.13,-98.1983 2474.2,-93.846 2474.2,-93.846"/>
<text text-anchor="middle" x="2914" y="-220.3" font-family="Times,serif" font-size="14.00">game_category</text>
</g>
<!-- List&#45;&gt;ActsAsTaggableOn::Tag -->
<g id="edge86" class="edge"><title>List&#45;&gt;ActsAsTaggableOn::Tag</title>
<path fill="none" stroke="#48423a" d="M2561.42,-348.031C2580.61,-339.982 2605.84,-330.251 2629,-324 2778.4,-283.676 3015.35,-360.507 2960,-216 2941.2,-166.918 2928.25,-151.029 2881,-128 2845.36,-110.63 2612.95,-100.551 2472.8,-95.9822"/>
<polygon fill="#48423a" stroke="#48423a" points="2561.17,-348.136 2550.21,-347.921 2556.57,-350.098 2551.98,-352.06 2551.98,-352.06 2551.98,-352.06 2556.57,-350.098 2553.74,-356.199 2561.17,-348.136 2561.17,-348.136"/>
<polygon fill="#48423a" stroke="#48423a" points="2472.46,-95.9711 2462.61,-91.1519 2467.46,-95.8104 2462.46,-95.6496 2462.46,-95.6496 2462.46,-95.6496 2467.46,-95.8104 2462.32,-100.147 2472.46,-95.9711 2472.46,-95.9711"/>
<text text-anchor="middle" x="2998.5" y="-220.3" font-family="Times,serif" font-size="14.00">game_name</text>
</g>
<!-- ListLink -->
<g id="node51" class="node"><title>ListLink</title>
<ellipse fill="none" stroke="black" cx="2731" cy="-180" rx="40.4202" ry="18"/>
<text text-anchor="middle" x="2731" y="-176.3" font-family="Times,serif" font-size="14.00">ListLink</text>
</g>
<!-- List&#45;&gt;ListLink -->
<g id="edge66" class="edge"><title>List&#45;&gt;ListLink</title>
<path fill="none" stroke="#a7364f" d="M2551.47,-342.663C2589.01,-308.858 2666.36,-239.209 2706.15,-203.377"/>
<ellipse fill="none" stroke="#a7364f" cx="2548.41" cy="-345.421" rx="4.00002" ry="4.00002"/>
<polygon fill="#a7364f" stroke="#a7364f" points="2706.38,-203.167 2716.83,-199.819 2710.1,-199.821 2713.81,-196.475 2713.81,-196.475 2713.81,-196.475 2710.1,-199.821 2710.8,-193.131 2706.38,-203.167 2706.38,-203.167"/>
</g>
<!-- Ability -->
<g id="node14" class="node"><title>Ability</title>
<polygon fill="none" stroke="black" points="2874.25,-381 2819.75,-381 2819.75,-345 2874.25,-345 2874.25,-381"/>
<text text-anchor="middle" x="2847" y="-359.3" font-family="Times,serif" font-size="14.00">Ability</text>
</g>
<!-- ExternalLink&#45;&gt;ListItem -->
<g id="edge88" class="edge"><title>ExternalLink&#45;&gt;ListItem</title>
<path fill="none" stroke="#c13c94" d="M2398.34,-247.686C2422.16,-233.46 2454.4,-214.207 2478.11,-200.046"/>
<ellipse fill="none" stroke="#c13c94" cx="2394.85" cy="-249.772" rx="4.00002" ry="4.00002"/>
<polygon fill="#c13c94" stroke="#c13c94" points="2478.16,-200.016 2489.05,-198.752 2482.45,-197.452 2486.75,-194.888 2486.75,-194.888 2486.75,-194.888 2482.45,-197.452 2484.44,-191.025 2478.16,-200.016 2478.16,-200.016"/>
</g>
<!-- ExternalLink&#45;&gt;Progress -->
<g id="edge92" class="edge"><title>ExternalLink&#45;&gt;Progress</title>
<path fill="none" stroke="#b485fa" d="M2300.62,-266.646C1985.81,-264.824 637.778,-255.668 552,-232 538.183,-228.188 536.766,-222.516 524,-216 442.084,-174.192 343.037,-131.243 289.969,-108.824"/>
<ellipse fill="none" stroke="#b485fa" cx="2304.75" cy="-266.669" rx="4" ry="4"/>
<polygon fill="#b485fa" stroke="#b485fa" points="289.826,-108.764 282.357,-100.735 285.218,-106.823 280.61,-104.882 280.61,-104.882 280.61,-104.882 285.218,-106.823 278.863,-109.029 289.826,-108.764 289.826,-108.764"/>
</g>
<!-- ExternalLink&#45;&gt;User -->
<g id="edge94" class="edge"><title>ExternalLink&#45;&gt;User</title>
<path fill="none" stroke="#ae42e4" d="M2298.89,-266.814C1924.99,-265.674 113.733,-258.778 63,-232 52.5408,-226.479 44.4571,-216.398 38.6241,-206.648"/>
<polygon fill="#ae42e4" stroke="#ae42e4" points="2299.02,-266.814 2309,-271.344 2304.02,-266.829 2309.02,-266.844 2309.02,-266.844 2309.02,-266.844 2304.02,-266.829 2309.03,-262.344 2299.02,-266.814 2299.02,-266.814"/>
<polygon fill="#ae42e4" stroke="#ae42e4" points="38.4686,-206.36 37.677,-195.422 36.0929,-201.96 33.7173,-197.56 33.7173,-197.56 33.7173,-197.56 36.0929,-201.96 29.7577,-199.699 38.4686,-206.36 38.4686,-206.36"/>
</g>
<!-- ExternalLink&#45;&gt;ActsAsTaggableOn::Tagging -->
<g id="edge96" class="edge"><title>ExternalLink&#45;&gt;ActsAsTaggableOn::Tagging</title>
<path fill="none" stroke="#d6d4ad" d="M2300.92,-266.695C1990.55,-265.117 672.417,-256.966 589,-232 561.83,-223.868 555.054,-218.054 535,-198 510.543,-173.543 477.594,-153.463 501,-128 520.563,-106.717 677.638,-98.3666 792.783,-95.096"/>
<ellipse fill="none" stroke="#d6d4ad" cx="2304.93" cy="-266.715" rx="4" ry="4"/>
<polygon fill="#d6d4ad" stroke="#d6d4ad" points="793.093,-95.0876 803.212,-99.3119 798.091,-94.9506 803.089,-94.8136 803.089,-94.8136 803.089,-94.8136 798.091,-94.9506 802.966,-90.3153 793.093,-95.0876 793.093,-95.0876"/>
<text text-anchor="middle" x="558" y="-176.3" font-family="Times,serif" font-size="14.00">taggings</text>
</g>
<!-- ExternalLink&#45;&gt;ActsAsTaggableOn::Tagging -->
<g id="edge100" class="edge"><title>ExternalLink&#45;&gt;ActsAsTaggableOn::Tagging</title>
<path fill="none" stroke="#73635a" d="M2301.09,-265.158C1982.46,-255.801 596.874,-211.331 537,-144 500.713,-103.193 667.553,-93.7714 791.453,-92.2492"/>
<ellipse fill="none" stroke="#73635a" cx="2305.31" cy="-265.281" rx="4" ry="4"/>
<polygon fill="#73635a" stroke="#73635a" points="791.795,-92.2457 801.843,-96.6388 796.795,-92.1924 801.795,-92.1391 801.795,-92.1391 801.795,-92.1391 796.795,-92.1924 801.747,-87.6393 791.795,-92.2457 791.795,-92.2457"/>
<text text-anchor="middle" x="899" y="-176.3" font-family="Times,serif" font-size="14.00">tag_taggings</text>
</g>
<!-- ExternalLink&#45;&gt;ActsAsTaggableOn::Tag -->
<g id="edge98" class="edge"><title>ExternalLink&#45;&gt;ActsAsTaggableOn::Tag</title>
<path fill="none" stroke="#2b4e66" d="M2366,-239.653C2366,-207.023 2366,-152.801 2366,-120.225"/>
<polygon fill="#2b4e66" stroke="#2b4e66" points="2366,-239.999 2361.5,-249.999 2366,-244.999 2366,-249.999 2366,-249.999 2366,-249.999 2366,-244.999 2370.5,-249.999 2366,-239.999 2366,-239.999"/>
<polygon fill="#2b4e66" stroke="#2b4e66" points="2366,-120.07 2370.5,-110.07 2366,-115.07 2366,-110.07 2366,-110.07 2366,-110.07 2366,-115.07 2361.5,-110.07 2366,-120.07 2366,-120.07"/>
<text text-anchor="middle" x="2392.5" y="-176.3" font-family="Times,serif" font-size="14.00">base_tags</text>
</g>
<!-- ExternalLink&#45;&gt;ActsAsTaggableOn::Tag -->
<g id="edge102" class="edge"><title>ExternalLink&#45;&gt;ActsAsTaggableOn::Tag</title>
<path fill="none" stroke="#d3767a" d="M2428.61,-259.178C2482.63,-250.382 2561.31,-232.549 2622,-198 2641.94,-186.65 2638.31,-171.913 2659,-162 2719.48,-133.027 2851.5,-177.261 2806,-128 2783.91,-104.079 2597.19,-96.494 2474.19,-94.0971"/>
<polygon fill="#d3767a" stroke="#d3767a" points="2428.37,-259.217 2417.79,-256.323 2423.43,-259.993 2418.49,-260.768 2418.49,-260.768 2418.49,-260.768 2423.43,-259.993 2419.18,-265.214 2428.37,-259.217 2428.37,-259.217"/>
<polygon fill="#d3767a" stroke="#d3767a" points="2473.97,-94.0931 2464.05,-89.4078 2468.97,-94.0001 2463.97,-93.907 2463.97,-93.907 2463.97,-93.907 2468.97,-94.0001 2463.88,-98.4062 2473.97,-94.0931 2473.97,-94.0931"/>
<text text-anchor="middle" x="2670" y="-176.3" font-family="Times,serif" font-size="14.00">tags</text>
</g>
<!-- ExternalLink&#45;&gt;ListLink -->
<g id="edge90" class="edge"><title>ExternalLink&#45;&gt;ListLink</title>
<path fill="none" stroke="#e909da" d="M2431.5,-267.543C2491.22,-266.078 2580.99,-258.898 2654,-232 2672.32,-225.252 2690.62,-213.39 2704.79,-202.803"/>
<ellipse fill="none" stroke="#e909da" cx="2427.28" cy="-267.63" rx="4" ry="4"/>
<polygon fill="#e909da" stroke="#e909da" points="2705.12,-202.545 2715.79,-199.994 2709.08,-199.489 2713.04,-196.433 2713.04,-196.433 2713.04,-196.433 2709.08,-199.489 2710.29,-192.871 2705.12,-202.545 2705.12,-202.545"/>
</g>
</g>
</svg>
